<?xml version="1.0" encoding="utf-8"?>
<!-- Generator: Adobe Illustrator 16.0.0, SVG Export Plug-In . SVG Version: 6.00 Build 0)  -->
<!DOCTYPE svg PUBLIC "-//W3C//DTD SVG 1.1//EN" "http://www.w3.org/Graphics/SVG/1.1/DTD/svg11.dtd">
<svg version="1.1" id="Layer_1" xmlns="http://www.w3.org/2000/svg" xmlns:xlink="http://www.w3.org/1999/xlink" x="0px" y="0px"
	 width="689.965px" height="457.906px" viewBox="-379.875 334.094 689.965 457.906"
	 enable-background="new -379.875 334.094 689.965 457.906" xml:space="preserve">
<g>
	<path fill="#E65D22" d="M-45.684,586.276c8.604,2.637,17.711-2.193,20.354-10.793c0.002,0,12.453-31.445,15.724-42.108
		c7.196-23.453,21.002-60.977,21.002-60.976c0.142-0.338,0.872-1.729,2.572-1.729c0.152,0,3.432,0,3.432,0h0.007
		c0.97-0.015,1.536,0.81,1.278,1.739l-48.743,159.532c-0.261,0.929,0,2.556,1.696,2.556H5.836c0.97,0,1.678,0.785,1.678,1.755
		c0,0-0.007,116.225-0.007,116.265c0,11.605,9.409,21.016,21.016,21.016c11.607,0,21.016-9.41,21.016-21.016l0.007-116.269
		c0-0.97,0.784-1.751,1.75-1.751h0.029h3.359h0.029c0.97,0,1.75,0.781,1.75,1.751l0.008,116.269c0,11.605,9.41,21.016,21.016,21.016
		c11.606,0,21.016-9.41,21.016-21.016c0-0.04-0.007-116.265-0.007-116.265c0-0.97,0.708-1.755,1.678-1.755h34.199
		c1.695,0,1.961-1.623,1.695-2.556L87.314,472.41c-0.257-0.93,0.309-1.754,1.279-1.739H88.6c0,0,3.275,0,3.432,0
		c1.703,0,2.43,1.395,2.571,1.729c0,0,32.249,105.246,32.255,105.25c2.644,8.596,11.755,13.43,20.355,10.793
		c3.022-0.926,5.564-2.661,7.496-4.881c0.134-0.152,0.272-0.294,0.399-0.45c0.004,0,0.004-0.004,0.004-0.007
		c2.295-2.807,3.679-6.392,3.679-10.3c0.007-0.004,9.885-99.508,9.885-99.508c0-0.938,0.759-1.692,1.695-1.692h3.454
		c0.937,0,1.692,0.759,1.692,1.692c0,0,0,279.162,0,279.195c0,11.605,9.409,21.015,21.016,21.015
		c11.606,0,21.016-9.409,21.016-21.015c0-0.033,0-164.274,0-164.274c0-1.199,0.552-1.7,1.735-1.7h3.389
		c1.184,0,1.736,0.501,1.736,1.7c0,0,0,164.241,0,164.274c0,11.605,9.409,21.015,21.016,21.015c11.605,0,21.016-9.409,21.016-21.015
		c0-0.033,0-279.195,0-279.195c0-0.938,0.759-1.696,1.692-1.696h3.453c0.938,0,1.696,0.759,1.696,1.696
		c0,0,0.014,99.504,0.022,99.508c0.007,8.996,7.299,16.285,16.295,16.285c8.999,0,16.298-7.297,16.298-16.299
		c0-0.052,0-111.89,0-113.222c0.004-22.302-17.152-39.457-38.597-39.457c-0.544,0-29.369,0-42.889,0c0,0-2.709,0-6.859,0
		c-13.517,0-42.341,0-42.889,0c-21.445,0-36.595,16.363-38.599,39.457c-0.037,0.432-1.09,12.51-2.496,28.623
		c-4.528-14.798-7.865-25.703-7.865-25.703c-3.723-12.939-10.833-42.403-38.313-42.403H18.699c-25.606,0-34.674,29.464-38.4,42.403
		c-0.058,0.198-15.003,41.501-22.07,64.576c-2.74,8.946-14.711,38.844-14.714,38.853C-59.125,574.521-54.288,583.636-45.684,586.276
		z"/>
	<circle fill="#E65D22" cx="220.985" cy="379.431" r="31.272"/>
	<circle fill="#E65D22" cx="51.572" cy="379.402" r="31.272"/>
</g>
<g>
	<path fill="#E65D22" d="M-364.84,562.586c8.604,2.636,17.711-2.193,20.355-10.793c0.007,0,24.357-79.394,24.357-79.394
		c0.142-0.338,0.872-1.729,2.571-1.729c0.153,0,3.432,0,3.432,0h0.007c0.969-0.015,1.536,0.81,1.278,1.739l-48.743,159.532
		c-0.261,0.929,0,2.556,1.696,2.556h34.199c0.969,0,1.678,0.785,1.678,1.755c0,0-0.007,116.225-0.007,116.265
		c0,11.605,9.409,21.016,21.016,21.016c11.607,0,21.017-9.41,21.017-21.016l0.007-116.269c0-0.97,0.784-1.751,1.75-1.751h0.029
		h3.359h0.029c0.969,0,1.75,0.781,1.75,1.751l0.007,116.269c0,11.605,9.41,21.016,21.016,21.016s21.016-9.41,21.016-21.016
		c0-0.04-0.007-116.265-0.007-116.265c0-0.97,0.708-1.755,1.678-1.755h34.198c1.696,0,1.961-1.623,1.696-2.556L-244.21,472.41
		c-0.258-0.93,0.309-1.754,1.278-1.739h0.008c0,0,3.275,0,3.432,0c1.703,0,2.43,1.395,2.571,1.729c0,0,32.249,105.246,32.255,105.25
		c2.644,8.596,11.755,13.43,20.354,10.793c3.022-0.926,5.564-2.661,7.497-4.881c0.134-0.152,0.272-0.294,0.399-0.45
		c0.003,0,0.003-0.004,0.003-0.007c2.295-2.807,3.679-6.392,3.679-10.3c0.007-0.004,9.885-99.508,9.885-99.508
		c0-0.938,0.759-1.692,1.696-1.692h3.454c0.937,0,1.692,0.759,1.692,1.692c0,0,0,279.162,0,279.195
		c0,11.605,9.409,21.015,21.016,21.015s21.016-9.409,21.016-21.015c0-0.033,0-164.274,0-164.274c0-1.199,0.552-1.7,1.735-1.7h3.389
		c1.184,0,1.736,0.501,1.736,1.7c0,0,0,164.241,0,164.274c0,11.605,9.409,21.015,21.016,21.015c11.606,0,21.016-9.409,21.016-21.015
		c0-0.033,0-279.195,0-279.195c0-0.938,0.759-1.696,1.692-1.696h3.454c0.937,0,1.696,0.759,1.696,1.696
		c0,0,0.014,99.504,0.022,99.508c0.007,8.996,7.299,16.285,16.295,16.285c8.999,0,16.299-7.297,16.299-16.299
		c0-0.052,0-111.89,0-113.222c0.003-22.302-17.152-39.457-38.597-39.457c-0.544,0-29.369,0-42.889,0c0,0-2.709,0-6.859,0
		c-13.517,0-42.341,0-42.889,0c-21.445,0-36.596,16.363-38.6,39.457c-0.036,0.432-1.09,12.51-2.495,28.623
		c-4.529-14.798-7.866-25.703-7.866-25.703c-3.722-12.939-10.833-42.403-38.313-42.403h-68.691c-25.606,0-34.674,29.464-38.4,42.403
		c-0.08,0.275-24.404,79.705-24.415,79.738C-378.28,550.83-373.443,559.946-364.84,562.586z"/>
	<circle fill="#E65D22" cx="-110.539" cy="379.431" r="31.272"/>
	<circle fill="#E65D22" cx="-279.952" cy="379.402" r="31.272"/>
</g>
</svg>
