<?xml version="1.0" encoding="utf-8"?>
<!-- Generator: Adobe Illustrator 16.0.0, SVG Export Plug-In . SVG Version: 6.00 Build 0)  -->
<!DOCTYPE svg PUBLIC "-//W3C//DTD SVG 1.1//EN" "http://www.w3.org/Graphics/SVG/1.1/DTD/svg11.dtd">
<svg version="1.1" id="Layer_1" xmlns="http://www.w3.org/2000/svg" xmlns:xlink="http://www.w3.org/1999/xlink" x="0px" y="0px"
	 width="151px" height="100px" viewBox="-27 0 151 100" enable-background="new -27 0 151 100" xml:space="preserve">
<g>
	<path fill="#FFFFFF" d="M-26.714,87.403V41.819h11.988c3.926,0,6.777,0.184,8.554,0.548c1.775,0.366,3.216,0.992,4.321,1.879
		c1.303,1.066,2.274,2.378,2.916,3.937c0.64,1.56,0.962,3.416,0.962,5.565c0,2.625-0.459,4.824-1.376,6.6
		c-0.918,1.777-2.345,3.236-4.279,4.381c3.296,1.462,5.033,4.925,5.211,10.391c0,0.078,0,0.127,0,0.149
		c0.019,0.569,0.038,1.398,0.059,2.484c0.078,5.131,0.927,8.347,2.545,9.65H-8.273c-0.278-0.945-0.479-1.94-0.607-2.977
		c-0.129-1.036-0.192-2.144-0.192-3.328c0-0.731,0.019-1.617,0.059-2.651c0.039-1.036,0.059-1.71,0.059-2.026
		c0-2.782-0.366-4.687-1.095-5.712c-0.731-1.025-2.043-1.541-3.937-1.541h-2.19v18.235H-26.714z M-16.176,60.793
		c0.177,0,0.409,0.01,0.695,0.029s0.498,0.029,0.638,0.029c2.208,0,3.773-0.443,4.69-1.332c0.918-0.887,1.376-2.386,1.376-4.498
		c0-1.954-0.458-3.341-1.376-4.16c-0.917-0.817-2.482-1.228-4.69-1.228c-0.14,0-0.352,0.011-0.638,0.029
		c-0.286,0.02-0.518,0.029-0.695,0.029V60.793z"/>
	<path fill="#FFFFFF" d="M8.806,87.403V41.819h10.656v45.584H8.806z"/>
	<path fill="#FFFFFF" d="M26.86,87.403V41.819h11.101l8.85,28.119c-0.355-4.735-0.618-8.82-0.785-12.254
		c-0.168-3.434-0.251-6.334-0.251-8.702v-7.164h9.5v45.584H44.147l-8.91-28.979c0.394,3.77,0.696,7.426,0.903,10.967
		c0.208,3.541,0.311,6.98,0.311,10.316v7.695H26.86z"/>
	<path fill="#FFFFFF" d="M90.736,62.421v24.982h-7.34l-0.476-2.841c-1.063,1.222-2.244,2.135-3.534,2.734
		c-1.294,0.604-2.76,0.905-4.396,0.905c-1.854,0-3.567-0.346-5.137-1.035c-1.568-0.692-2.935-1.688-4.1-2.99
		c-1.438-1.598-2.457-3.751-3.048-6.452c-0.592-2.704-0.889-7.283-0.889-13.735c0-4.599,0.209-8.277,0.622-11.041
		c0.414-2.763,1.056-4.833,1.922-6.216c1.265-1.993,2.936-3.492,5.019-4.499c2.084-1.006,4.555-1.51,7.415-1.51
		c4.479,0,7.854,1.218,10.123,3.656c2.268,2.438,3.403,6.073,3.403,10.908c0,0.176-0.011,0.448-0.027,0.813
		c-0.021,0.365-0.031,0.656-0.031,0.872H80.14v-0.562c0-2.623-0.281-4.499-0.843-5.624c-0.564-1.125-1.478-1.688-2.739-1.688
		c-1.499,0-2.53,0.693-3.094,2.073c-0.562,1.381-0.844,4.608-0.844,9.679v4.498v3.139c0,5.073,0.267,8.268,0.801,9.592
		c0.532,1.319,1.519,1.982,2.96,1.982c1.438,0,2.485-0.584,3.138-1.746c0.649-1.165,0.977-3.048,0.977-5.655
		c0-0.591-0.005-1.046-0.014-1.361c-0.013-0.314-0.027-0.621-0.047-0.917h-4.172v-7.962H90.736z"/>
	<path fill="#FFFFFF" d="M96.271,71.952h9.768v1.33c0,2.508,0.297,4.274,0.889,5.302c0.592,1.023,1.587,1.538,2.989,1.538
		c1.125,0,2.013-0.389,2.663-1.172c0.651-0.777,0.979-1.838,0.979-3.179c0-2.21-1.59-4.333-4.769-6.366
		c-0.512-0.354-0.907-0.621-1.182-0.799c-0.101-0.059-0.268-0.167-0.504-0.326c-4.282-2.88-6.945-5.05-7.991-6.512
		c-0.751-1.104-1.322-2.347-1.717-3.728c-0.396-1.381-0.593-2.891-0.593-4.53c0-3.984,1.155-7.113,3.462-9.383
		c2.31-2.269,5.488-3.404,9.532-3.404c4.399,0,7.76,1.116,10.077,3.345c2.32,2.231,3.479,5.458,3.479,9.679
		c0,0.177-0.011,0.425-0.028,0.74c-0.021,0.316-0.031,0.563-0.031,0.74h-9.559v-0.563c0-1.992-0.313-3.502-0.935-4.529
		c-0.62-1.027-1.523-1.539-2.708-1.539c-1.005,0-1.815,0.359-2.427,1.08c-0.61,0.721-0.917,1.673-0.917,2.857
		c0,1.934,1.735,3.985,5.209,6.156c0.634,0.414,1.114,0.73,1.449,0.947c0.278,0.157,0.662,0.405,1.156,0.738
		c3.729,2.369,6.115,4.363,7.163,5.98c0.65,1.046,1.15,2.235,1.494,3.567c0.343,1.331,0.518,2.777,0.518,4.337
		c0,4.558-1.184,8.069-3.553,10.537c-2.367,2.465-5.753,3.699-10.151,3.699c-4.619,0-8.086-1.179-10.403-3.538
		c-2.319-2.356-3.479-5.864-3.479-10.521c0-0.297,0.003-0.608,0.016-0.934C96.178,73.18,96.213,72.661,96.271,71.952z"/>
</g>
</svg>
