<?xml version="1.0" encoding="utf-8"?>
<!-- Generator: Adobe Illustrator 16.0.0, SVG Export Plug-In . SVG Version: 6.00 Build 0)  -->
<!DOCTYPE svg PUBLIC "-//W3C//DTD SVG 1.1//EN" "http://www.w3.org/Graphics/SVG/1.1/DTD/svg11.dtd">
<svg version="1.1" id="Layer_1" xmlns="http://www.w3.org/2000/svg" xmlns:xlink="http://www.w3.org/1999/xlink" x="0px" y="0px"
	 width="116px" height="100px" viewBox="7.167 0 116 100" enable-background="new 7.167 0 116 100" xml:space="preserve">
<path fill="#FFFFFF" d="M79.261,38.955c2.033-1.014,4.084-2.06,6.137-3.121c3.554-10.694,8.615-21.327,15.192-31.756
	c1.394-2.202,0.411-2.424-2.263-0.548c-9.119,6.396-18.025,12.495-26.72,18.299c-2.541,1.704-5.336,4.27-6.201,5.774
	c-1.118,1.936-2.152,3.881-3.123,5.833c3.563-2.124,7.146-4.284,10.776-6.528c3.086-1.921,4.565-1.55,3.396,0.912
	c-6.416,13.567-9.891,19.366-10.419,33.014c1.739-0.297,3.483-0.621,5.229-0.961c0.396-8.176,1.76-8.384,4.132-16.583
	C75.847,41.724,77.597,39.792,79.261,38.955z"/>
<path fill="#FFFFFF" d="M87.636,60.615c0.191-1.424,1.394-2.938,2.636-3.392c2.921-1.05,5.86-2.178,8.809-3.339
	c1.142-6.385,2.751-12.774,4.834-19.146c0.656-2-0.155-2.835-1.865-1.892c-3.777,2.072-7.517,4.058-11.229,5.976
	c-2.903,8.737-4.803,17.518-5.673,26.261c-0.223,2.255-1.887,4.434-3.806,4.833c-1.555,0.339-3.103,0.655-4.653,0.959
	c-0.264,5.479-0.108,10.936,0.518,16.345c0.176,1.539,1.54,2.856,2.988,2.923c2.42,0.095,4.84,0.145,7.257,0.15
	C86.227,80.505,86.274,70.575,87.636,60.615z"/>
<path fill="#FFFFFF" d="M28.346,65.134c-2.637-9.556-2.328-19.566,0.875-29.469c-3.967,2.038-7.888,3.974-11.76,5.784
	c-2.406,1.147-4.579,2.676-4.833,3.476c-2.283,7.167-1.816,14.437,1.455,21.106c0.366,0.743,2.667,2.445,5.064,3.763
	c8.205,4.436,16.158,8.392,23.918,11.861c2.27,1.039,3.363,0.315,2.605-1.576c-1.093-2.698-1.983-5.436-2.705-8.197
	c-3.104-0.914-6.222-1.871-9.362-2.917C31.081,68.097,28.684,66.362,28.346,65.134z"/>
<path fill="#FFFFFF" d="M116.723,36.95c-1.385,0.568-2.759,1.101-4.137,1.645c-1.949,10.926-2.523,21.837-1.696,32.622
	c0.148,1.975-0.845,3.625-2.29,3.666c-2.544,0.091-5.093,0.128-7.642,0.122c0.307,2.445,0.672,4.885,1.14,7.31
	c0.265,1.39,1.46,2.633,2.618,2.767c4.002,0.436,7.98,0.75,11.953,0.951c1.155,0.06,1.836-1.253,1.569-2.924
	c-2.335-14.473-2.251-29.231,0.221-44.023C118.75,37.376,117.984,36.426,116.723,36.95z"/>
<path fill="#FFFFFF" d="M55.816,71.941c0.576-11.479,3.722-23.087,9.374-34.463c-6.794,4.051-13.479,7.904-20.042,11.517
	c-2.923,1.632-5.739,3.926-6.255,5.192c-0.565,1.388-1.072,2.775-1.522,4.169c4.475-2.299,9.01-4.729,13.619-7.315
	c2.548-1.445,3.896-1.052,3.109,0.941c-5.592,14.247-6.603,28.764-2.986,42.59c5.46,1.608,10.878,3.036,16.252,4.234
	c2.458,0.574,3.923-0.949,3.423-3.374c-1.541-7.415-2.144-14.953-1.848-22.543c-3.267,0.56-6.528,1.043-9.782,1.45
	C57.269,74.563,55.737,73.469,55.816,71.941z"/>
</svg>
