<?xml version="1.0" encoding="utf-8"?>
<!-- Generator: Adobe Illustrator 16.0.0, SVG Export Plug-In . SVG Version: 6.00 Build 0)  -->
<!DOCTYPE svg PUBLIC "-//W3C//DTD SVG 1.1//EN" "http://www.w3.org/Graphics/SVG/1.1/DTD/svg11.dtd">
<svg version="1.1" id="Layer_1" xmlns="http://www.w3.org/2000/svg" xmlns:xlink="http://www.w3.org/1999/xlink" x="0px" y="0px"
	 width="100px" height="100px" viewBox="0 0 100 100" enable-background="new 0 0 100 100" xml:space="preserve">
<path fill="#FFFFFF" d="M54.489,52.244c0,0-11.019-11.933-9.182-24.328C47.143,15.523,56.093,6.573,56.093,6.573
	S67.111,35.031,54.489,52.244z"/>
<path fill="#FFFFFF" d="M71.206,55.377c0,0,1.438-11.531,9.062-16.249c7.623-4.717,16.646-3.96,16.646-3.96
	S86.445,54.332,71.206,55.377z"/>
<path fill="#FFFFFF" d="M66.39,49.419c0,0-7.464-15.736-1.623-27.833C70.604,9.488,82.626,3.187,82.626,3.187
	S84.808,35.832,66.39,49.419z"/>
<path fill="#FFFFFF" d="M43.378,69.129c0,0-16.232,0.54-24.417-8.945c-8.181-9.485-9.108-22.111-9.108-22.111
	S38.596,48.33,43.378,69.129z"/>
<path fill="#FFFFFF" d="M42.171,76.979c0,0-9.848,6.169-18.319,3.24C15.379,77.289,10.27,69.81,10.27,69.81
	S31.739,65.826,42.171,76.979z"/>
<path fill="#FFFFFF" d="M47.759,58.574c0,0-16.687-4.973-21.778-17.401c-5.092-12.432-1.74-25.585-1.74-25.585
	S49.977,35.795,47.759,58.574z"/>
</svg>
