<?xml version="1.0" encoding="utf-8"?>
<!-- Generator: Adobe Illustrator 16.0.0, SVG Export Plug-In . SVG Version: 6.00 Build 0)  -->
<!DOCTYPE svg PUBLIC "-//W3C//DTD SVG 1.1//EN" "http://www.w3.org/Graphics/SVG/1.1/DTD/svg11.dtd">
<svg version="1.1" id="Layer_1" xmlns="http://www.w3.org/2000/svg" xmlns:xlink="http://www.w3.org/1999/xlink" x="0px" y="0px"
	 width="100px" height="100px" viewBox="0 0 100 100" enable-background="new 0 0 100 100" xml:space="preserve">
<rect x="26.351" y="13.549" transform="matrix(0.7071 -0.7071 0.7071 0.7071 -5.6931 31.8476)" fill="#FFFFFF" width="18.495" height="18.495"/>
<rect x="26.352" y="35.464" transform="matrix(0.7072 -0.7071 0.7071 0.7072 -21.1886 38.2636)" fill="#FFFFFF" width="18.495" height="18.494"/>
<rect x="43.787" y="24.506" transform="matrix(0.7071 -0.7071 0.7071 0.7071 -8.3339 47.3851)" fill="#FFFFFF" width="18.496" height="18.494"/>
<rect x="65.231" y="24.271" transform="matrix(0.7072 -0.7071 0.7071 0.7072 -1.8886 62.4761)" fill="#FFFFFF" width="18.495" height="18.493"/>
<rect x="54.508" y="41.944" transform="matrix(0.7071 -0.7072 0.7072 0.7071 -17.5238 60.0812)" fill="#FFFFFF" width="18.494" height="18.495"/>
<rect x="54.509" y="63.86" transform="matrix(0.7071 -0.7071 0.7071 0.7071 -33.0207 66.4939)" fill="#FFFFFF" width="18.493" height="18.494"/>
<rect x="15.747" y="53.253" transform="matrix(0.7071 -0.7072 0.7072 0.7071 -36.8762 35.9843)" fill="#FFFFFF" width="18.495" height="18.496"/>
<rect x="37.19" y="53.017" transform="matrix(0.7071 -0.7071 0.7071 0.7071 -30.4271 51.0757)" fill="#FFFFFF" width="18.495" height="18.495"/>
</svg>
