<?xml version="1.0" encoding="utf-8"?>
<!-- Generator: Adobe Illustrator 15.0.0, SVG Export Plug-In . SVG Version: 6.00 Build 0)  -->
<!DOCTYPE svg PUBLIC "-//W3C//DTD SVG 1.1//EN" "http://www.w3.org/Graphics/SVG/1.1/DTD/svg11.dtd">
<svg version="1.1" id="Layer_1" xmlns="http://www.w3.org/2000/svg" xmlns:xlink="http://www.w3.org/1999/xlink" x="0px" y="0px"
	 width="595.28px" height="841.89px" viewBox="0 0 595.28 841.89" enable-background="new 0 0 595.28 841.89" xml:space="preserve">
<path fill-rule="evenodd" clip-rule="evenodd" fill="#FFFFFF" d="M289.124,17.777c0.611-0.058,1.187-0.15,1.002-1.003
	c0.669,0,1.337,0,2.004,0c0.736,0.936,1.825,1.519,3.008,2.005c2.165,2.181,3.452,5.238,5.014,8.02c0,0.668,0,1.337,0,2.005
	c0,1.336,0,2.673,0,4.009c0.132,2.472,0.15,4.831-1.002,6.016c-1.677,2.333-9.396,44.07-10.027,47.118
	c0.102,3.109-2.836,9.528-3.008,11.028c0,0.334-2.091,12.278-3.008,14.034c0,0.335-1.658,9.947,0,11.028c0,0.334,0,0.668,0,1.002
	c0.354,3.323,3.004,4.349,5.014,6.015c0.334,0,0.667,0,1.002,0c1.675,1.93,5.419-2.544,6.015-5.013c0-0.334,3.849-6.511,6.015-9.022
	c0-0.334,0-0.668,0-1.003c0.335,0,6.39-7.313,9.022-11.026c0-0.335,0.669-1.003,1.005-1.003
	c8.341-10.704,26.063-31.746,26.063-32.08c5.781-4.581,14.036-17.711,14.036-18.045c0.335,0,0.668,0,1.002,0
	c1.747-4.268,5.697-6.334,9.023-9.022c0.336,0,0.67,0,1.004,0c1.336,0,2.674,0,4.009,0c0.334,0,0.667,0,1.002,0
	c4.12,2.23,7.361,5.339,9.023,10.025c0,1.002,0,2.005,0,3.007c-1.67,1.337-1.556,4.458-3.008,6.015
	c0,0.335-22.482,27.979-32.079,43.108c0,0.334-16.184,24.252-25.063,35.088c0,0.667,0,1.336,0,2.004
	c0.12,2.551,1.46,3.888,4.011,4.011c1.797,0.126,2.112-1.227,4.01-1.003c6.087-9.62,16.223-15.188,23.058-24.061
	c0.334,0,17.712-15.038,18.045-15.038c12.869-7.849,16.168-25.268,36.091-26.065c0.334,0,5.761,4.931,5.013,10.025
	c0,0.335-8.759,14.3-14.036,20.051c0,0.333-38.266,38.925-56.141,59.148c1.245,2.096,2.917,3.768,5.014,5.012
	c0.333,0,3.863,0.681,6.015,0c0.334,0,0.669,0,1.001,0c2.934-0.743,18.391-7.677,19.048-9.022c0.336,0,6.64-3.051,8.02-3.007
	c11.077-3.629,18.999-10.41,28.072-16.04c2.095-0.578,2.861-2.486,6.015-2.006c7.674-1.325,10.359,2.339,12.032,7.018
	c0.316,2.325-0.164,3.849-1.006,5.013c-4.228,5.795-16.706,14.035-17.041,14.035c-1.506,1.501-19.968,10.778-26.065,15.038
	c-0.807,0.53-1.63,1.046-3.008,1.002c-2.339,0.334-5.681,3.008-6.015,3.008c-12.49,6.56-22.894,15.202-31.08,26.065
	c0,0.333-18.266,35.866-19.046,38.095c-3.069,4.494-9.471,8.576-12.03,15.038c-0.751,3.259-3.841,11.533-4.009,13.033
	c0,0.668,0,23.058,0,24.06c0.596,2.077,1.001,8.354,1.001,9.022c0.596,2.077,1.001,9.022,1.001,10.025
	c0.6,2.077,1.005,9.022,1.005,10.024c0.596,2.078,1.002,9.022,1.002,10.026c0.61,2.396,1.001,10.025,1.001,11.028
	c0.623,2.72,1.005,11.027,1.005,12.03c0.62,2.72,1.001,11.696,1.001,13.032c0.636,3.375,1.002,13.033,1.002,14.035
	c0.643,4.035,1.005,15.707,1.005,17.043c0.65,5.029,1.001,20.05,1.001,22.054c0.662,8.362,1.002,41.438,1.002,49.123
	c0,1.672,0,3.343,0,5.014c0,6.683,0,13.366,0,20.05c-1.66,1.404,0,16.374,0,19.048c0.668,14.373-1.333,31.409,1.004,44.11
	c0,25.063,0,50.126,0,75.188c-2.337,13.704-0.336,31.744-1.004,47.117c0.134,2.473,0.152,4.831-1.002,6.016
	c-1.469,2.876-4.635,4.053-7.017,6.016c-0.336,0-0.669,0-1.005,0c-1.455,0.549-7.684,1.002-9.022,1.002c-10.024,0-20.049,0-30.075,0
	c-1.002,0-2.005,0-3.007,0c-0.31-1.361-2.51-0.832-4.009-1.002c-1.003,0-2.005,0-3.008,0c-0.445-0.892-3.843-5.515-5.014-7.019
	c-1.153-1.185-1.134-3.543-1.001-6.015c-0.597-2.077-1.003-9.69-1.003-11.027c-0.649-4.696-1.003-19.048-1.003-21.052
	c-0.653-5.362-1.001-21.723-1.001-24.061c-0.662-7.693-1.003-30.077-1.003-33.084c0-43.776,0-87.553,0-131.329
	c0-3.675,0.343-26.055,1.003-33.082c0-2.006,0.35-17.026,1.001-22.055c0-1.337,0.359-13.007,1.003-17.043
	c0-1.337,0.362-12.335,1.003-16.04c0-1.336,0.367-11.662,1.001-15.038c0-1.336,0.375-10.988,1.003-14.035
	c0-1.337,0.374-10.988,1.003-14.036c0-1.335,1.375-25.023,2.005-28.069c0-0.668,0.482-23.875-1.003-24.061
	c0-0.334-0.518-5.163-2.004-6.015c-0.43-1.909-2.16-2.519-2.004-5.013c-3.805-6.888-17.711-15.037-18.045-15.037
	c0-0.334-10.695-9.023-11.028-9.023c-5.099-5.593-9.082-12.306-13.033-19.048c-1.121-3.223-6.018-17.039-6.015-18.045
	c0-1.002-4.11-12.932-4.01-16.041c-0.554-1.785-9.542-39.914-11.028-40.101c-0.841-1.163-5.53-26.215-7.018-27.067
	c-0.53-0.806-7.2-14.855-12.03-19.049c-0.863-0.808-0.596-2.745-2.004-3.007c0-0.668,0.945-2.396,1.003-3.007
	c2.222-1.786,4.072-3.947,9.022-3.007c2.094-0.425,17.289,10.113,20.049,12.03c0,0.334,0,0.668,0,1.003
	c4.287,4.402,6.401,10.976,10.025,16.04c0.531,0.807,13.032,30.744,13.032,31.078c0,0.334,4.834,3.52,9.022,3.007
	c5.569-4.122,16.782-20.98,17.043-24.061c0-0.334,0-0.668,0-1.001c1.346-0.66,7.935-25.817,8.021-29.074
	c0-0.333,1.834-4.514,2.005-6.015c-0.711-3.718,22.611-62.602,23.057-65.163c0-0.335,5.878-13.171,6.015-15.038
	c0-0.334,0-0.668,0-1.002C285.443,24.12,286.554,20.218,289.124,17.777z"/>
<path fill-rule="evenodd" clip-rule="evenodd" fill="#FFFFFF" d="M429.397,178.083c0-0.334,1.246-3.199,1.246-3.533
	c1.112-3.231,5.519-3.171,10.025-3.007c3.14,2.541,5.74,5.622,6.016,11.027c0.083,1.587,9.045,37.739,9.021,40.101
	c0.61,2.397,3.696,17.693,4.011,19.048c0.083,1.587,1.002,4.678,1.002,5.013c0.148,2.191,2.526,2.152,5.014,2.004
	c1.467-0.872,3.176-1.5,3.007-4.01c0-0.335,1.836-8.525,2.007-10.025c0-0.334,1.001-38.43,1.001-39.098
	c0.996-8.36-2.882-21.596,4.009-24.06c1.338,0,2.674,0,4.012,0c4.563,1.785,6.016,13.701,6.016,14.034
	c0.082,1.588,1.001,7.687,1.001,9.023c0.659,3.521,2.007,31.747,2.007,35.088c0,7.686,0,25.73,0,27.067
	c-0.505,2.759,0.48,17.768,1.884,21.112c1.626,2.382,5.354,8.742,6.136,8.964c2.152,1.762,9.581,3.542,11.025,3.007
	c1.589-0.083,5.013-2.009,6.016-2.005c4.27-2.555,9.483-10.933,12.03-13.032c2.674-3.573,9.95-9.016,12.03-11.027
	c3.81-2.6,12.445-4.747,16.042-3.008c7.761-0.781,4.894,8.15,0,10.025c-4.766,3.925-9.108,8.27-13.034,13.033
	c0,0.334-3.104,3.245-4.01,5.012c-1.652,3.93-17.415,29.214-20.051,33.083c0,0.334-20.147,20.288-21.053,22.056
	c-1.885,1.789-9.016,7.902-13.031,9.022c-2.578,0.764-6.962,7.409-7.02,8.02c-1.359,0.311-3.432,34.329-4.009,36.09
	c0,1.337-1.409,19.979-2.007,22.056c0,1.336-4.382,78.156-5.012,81.204c0,2.004-0.392,11.64-1.002,14.035
	c0,1.671-1.408,22.985-2.006,25.063c0,1.337-10.449,104.504-11.025,106.266c0,1.004-2.432,27.312-3.008,29.073
	c0,1.67-0.394,10.636-1.003,13.033c0,1.336-0.67,4.01-1.004,4.01c0.431,2.769-10.024,3.008-13.031,3.008
	c-11.058,1.91-46.505-0.615-47.118-2.007c0-2.003,4.463-37.641,5.013-39.097c0-0.668,18.046-112.615,18.046-113.283
	c-0.209-1.795,3.006-19.717,3.006-21.054c0-0.333,2.837-13.536,3.008-15.036c0-0.334,24.892-113.789,25.063-115.29
	c0-0.668,3.007-24.729,3.007-26.065c-0.083-1.587-2.005-7.352-2.005-8.021c-0.335-2.338-13.423-17.988-14.035-18.044
	c-4.171-4.185-5.998-10.711-8.021-17.043c0-0.668-3.036-22.359-5.012-24.06c0-0.668-6.369-11.678-11.027-15.038
	c-0.812-0.19-25.297-23.16-27.068-24.06c-2.521-1.155-3.154-4.197-5.012-6.015c-1.762-0.912-1.835-3.513-3.008-5.013
	c-1.022-4.363,2.072-4.609,3.008-7.017c2.004,0,6.404,0.945,7.016,1.002c1.918,2.761,36.028,33.772,40.102,31.078
	c0.893-0.443,1.793-0.88,2.006-2.005c2.073-2.193-0.495-5.396-2.006-7.017c-1.233-0.438-5.339-7.637-7.018-9.022
	c-1.496-1.176-23.188-34.288-28.07-43.108c0-1.671,0-3.342,0-5.013c1.389-1.617,2.841-3.174,4.009-5.012c1.005,0,2.006,0,3.008,0
	c2.131,1.544,3.733,3.619,6.015,5.012c0,0.334,35.824,48.054,38.097,49.124c0.028,0.975,9.204,0.182,9.022-2.005
	c2.184-2.096-12.521-63.001-12.03-66.166C430.644,184.575,429.397,180.422,429.397,178.083z"/>
<path fill-rule="evenodd" clip-rule="evenodd" fill="#FFFFFF" stroke="#FFFFFF" stroke-miterlimit="10" d="M116.495,229.597
	c1.337,0,2.674,0,4.01,0c2.433,1.243,4.668,2.684,6.016,5.012c0,2.005,0,4.011,0,6.016c-0.779,0.892-3.564,9.803-4.01,13.032
	c-0.841,1.164-5.844,28.576-6.015,30.076c0,0.668-0.832,4.515-1.002,6.015c0,0.334-1.514,6.628-1.002,8.02
	c0,0.334,0.745,3.599,2.005,4.01c1.743,2.639,7.018-3.342,7.018-4.01c2.461-4.891,5.972-8.731,9.023-13.033
	c0.892-0.444,27.7-31.448,29.073-34.085c0.333,0,5.025-3.998,7.017-6.015c3.167-3.037,8.029,0.32,9.796,1.226
	c0,0.334,2.802,5.682,0.229,7.797c-1.333,3.011-2.768,5.92-5.013,8.021c-1.768,0.905-31.073,43.78-32.08,45.113
	c-1.602,1.406-2.561,3.454-3.008,6.016c-0.47,1.748,0.965,2.861,3.008,2.004c6.275-1.076,14.714-13.356,17.043-14.034
	c5.096-4.26,16.719-17.368,19.047-18.046c4.095-3.256,7.771-6.932,11.027-11.027c1.317-0.354,1.577-1.765,3.008-2.005
	c1.337,0,2.674,0,4.01,0c1.494,1.18,2.83,2.517,4.01,4.01c0,1.671,0,3.342,0,5.013c-0.209,1.946-1.032,0.638-1.519,1.822
	c-1.282,2.016-2.932,2.749-3.494,4.192c-4.493,3.192-7.209,8.163-11.027,12.03c-0.191,0.812-9.785,10.6-10.025,12.03
	c-4.429,3.592-13.511,13.07-15.037,15.039c-0.812,0.19-5.109,3.245-6.016,5.012c-1.337,1.78-1.232,4.402,0.502,5.567
	c0.809,0.863,2.279-0.049,3.508,0.447c1.574-0.503,41.328-19.491,45.113-21.052c1.671,0,3.232-1.416,5.013,0
	c1.443,0.562,3.191,9.951-2.005,13.033c-1.69,1.651-23.726,14.035-24.061,14.035c-1.996,1.011-20.572,13.513-22.055,14.035
	c-2.638,2.375-6.044,3.981-7.018,8.021c0,0.334-3.95,5.741-5.013,9.022c-2.838,2.508-7.54,15.852-9.022,18.045
	c0.282,1.619-10.971,16.431-11.027,17.042c-1.646-0.165,0,8.689,0,10.026c0.596,2.077,1.002,9.691,1.002,11.027
	c0.596,2.078,1.003,9.023,1.003,10.024c0.596,2.078,1.003,9.023,1.003,10.027c0.596,2.075,1.002,9.021,1.002,10.023
	c0.577,1.763,1.002,8.021,1.002,9.022c0.548,1.459,1.003,7.017,1.003,8.021c0.576,1.762,1.002,8.021,1.002,9.021
	c0.549,1.456,1.002,6.35,1.002,7.017c0.548,1.459,1.003,7.02,1.003,8.021c0.548,1.456,1.001,6.349,1.001,7.018
	c0.548,1.457,1.003,6.348,1.003,7.018c0.549,1.457,1.002,6.35,1.002,7.018c0.548,1.455,1.002,6.348,1.002,7.017
	c0.084,1.589,1.003,6.014,1.003,7.02c0.083,1.586,1.002,5.347,1.002,6.016c0.548,1.454,1.002,6.348,1.002,7.015
	c0.548,1.46,1.003,7.017,1.003,8.021c0.548,1.455,1.002,7.017,1.002,8.021c0.578,1.761,1.003,8.017,1.003,9.022
	c0.596,2.074,1.002,10.357,1.002,12.029c0.611,2.396,1.003,12.698,1.003,15.037c0.635,3.373,1.002,20.386,1.002,25.063
	c0,12.698,0,25.398,0,38.096c0,5.014-0.358,24.036-1.002,28.068c0,1.673-1.557,9.473-3.008,11.028c-4.678,0-9.357,0-14.035,0
	c-2.077,0.597-26.023-2.715-27.068-5.013c-1.175-0.16-0.845-1.827-1.002-3.007c0-1.67,0-3.342,0-5.012c0-1.338,0-2.674,0-4.012
	c0-2.673,0-16.707,0-18.045c-0.597-2.075-1.002-9.69-1.002-11.024c-0.596-2.079-1.003-9.695-1.003-11.028
	c-0.596-2.079-1.002-9.691-1.002-11.029c-0.597-2.075-1.003-9.69-1.003-11.028c-0.596-2.076-1.002-10.359-1.002-12.029
	c-0.596-2.076-1.002-10.359-1.002-12.03c-0.61-2.396-1.002-11.36-1.002-13.033c-0.611-2.396-1.003-12.029-1.003-14.036
	c-0.62-2.718-1.002-14.368-1.002-17.043c-0.635-3.373-1.002-18.377-1.002-22.054c-0.657-6.359-0.652-61.135,0-66.165
	c0-2.006,0.392-11.637,1.002-14.036c0-1.671,0.382-11.314,1.002-14.035c0-8.019,0-16.04,0-24.06
	c-0.083-1.588-0.004-2.813-1.002-4.01c0.184-0.852-5.013-7.686-5.013-8.02c-1.483-0.523-8.581-5.455-10.025-6.015
	c-1.927-1.4-6.387-6.685-8.02-8.021c-1.541-2.804-10.146-18.509-11.028-21.052c-2.028-5.66-4.261-11.111-5.013-18.046
	c-1.625-6.061-2.879-12.491-5.012-18.044c0-0.334-1.224-6.796-2.005-7.018c-0.075-6.276-13.905-30.207-13.033-34.085
	c-0.429-2.768,6.016-3.007,7.018-3.007c0.806,0.529,1.626,1.045,3.007,1.002c3.732,3.953,8.703,6.668,12.03,11.027
	c1.984,2.696,5.7,11.677,6.015,13.033c1.711,5.642,4.932,9.772,6.016,16.04c0,0.334,5.465,4.766,7.018,2.005
	c0.334,0,8.884-8.158,9.022-10.025c0-0.668,11.338-32.104,11.028-36.09c3.116-13.592,16.242-46.917,17.042-50.126
	C113.664,232.114,115.002,230.777,116.495,229.597z"/>
<g>
	<g>
		<path fill-rule="evenodd" clip-rule="evenodd" fill="#333133" d="M265.144,161.09c-0.334,0-0.667,0-1.001,0
			c-3.993,0.017-7.063,0.958-9.022,3.007c-0.334,0-0.669,0-1.003,0c-2.338,0.335-4.32,1.028-5.013,3.008c-0.333,0-0.669,0-1.002,0
			c-5.794,3.563-10.472,8.242-14.035,14.035c0,0.334,0,0.668,0,1.002c-2.425,1.251-3.243,4.109-4.011,7.018
			c-0.084,3.592-1.558,5.793-2.004,9.023c-1.667,2.713-1.667,12.324,0,15.038c0,0.668,0,1.337,0,2.005
			c0.318,3.357,1.032,6.319,3.008,8.02c0.43,1.909,2.158,2.519,2.004,5.012c4.12,8.245,10.764,13.965,19.048,18.046
			c0.333,0,0.667,0,1.001,0c6.613,2.743,8.324,10.39,13.033,15.038c0.055,1.281,4.33,9.706,4.01,12.03
			c0.171,1.5,3.008,15.706,3.008,16.04c0.548,1.457,1.001,5.681,1.001,6.016c0.549,1.456,1.003,5.68,1.003,6.015
			c0.549,1.456,1.003,6.349,1.003,7.017c0.548,1.457,1.002,6.35,1.002,7.018c0.576,1.762,1.002,7.351,1.002,8.019
			c0.577,1.763,1.003,7.352,1.003,8.021c0.595,2.077,1.001,8.354,1.001,9.022c0.612,2.397,1.003,10.025,1.003,11.027
			c0.61,2.398,1.002,10.693,1.002,12.03c0,37.427,0,74.854,0,112.281c0,2.674-0.349,19.701-1.002,25.064
			c0,1.67-0.368,12.663-1.003,16.039c0,1.672-2.005,32.415-2.005,34.085c-4.222,47.241-7.409,103.932-3.007,153.385
			c1.006-31.074,2.415-61.747,3.007-93.232c0-3.008,3.373-52.258,5.013-77.193c0-2.007,1.458-22.604,2.005-24.06
			c0-0.672,0.406-6.947,1.002-9.023c0-1.004,0.374-9.986,1.003-13.033c0-2.007,0.344-20.375,1.002-27.068c0-2.006,0-4.009,0-6.015
			c-0.194-4.6,1.002-22.725,1.002-25.062c1.672-19.052,1.672-45.111,0-64.162c0-1.67,0-3.342,0-5.013
			c-0.646-4.366-1.002-16.04-1.002-17.043c-0.621-2.72-1.002-11.028-1.002-12.03c-0.597-2.077-1.003-9.023-1.003-10.025
			c-0.577-1.763-1.002-7.352-1.002-8.021c-0.547-1.457-1.002-6.35-1.002-7.018c-0.549-1.456-1.003-6.349-1.003-7.017
			c-0.171-1.5-3.651-24.752-5.013-25.063c-0.057-0.612-1.002-3.676-1.002-5.012c-0.172-1.5-2.573-13.802-4.01-15.039
			c0-0.668,0-1.336,0-2.004c-0.719-2.722,4.727,0.717,4.01-2.005c0.668,0,1.337,0,2.005,0c1.5-0.171,3.699,0.357,4.009-1.003
			c0.335,0,0.669,0,1.003,0c2.49,0.151,4.16-0.517,5.012-2.005c0.335,0,0.669,0,1.003,0c2.339-0.334,4.32-1.027,5.012-3.007
			c0.336,0,0.669,0,1.005,0c5.54-2.813,9.101-7.608,13.03-12.03c-0.729-2.736,1.994-2.018,2.007-4.011
			c1.979-0.692,2.671-2.673,3.007-5.012c-0.101-3.108,1.227-4.789,2.006-7.018c1.482-0.186,0.917-2.422,1.002-4.01
			c0-1.003,0-2.005,0-3.007c1.651-0.136,1.651-6.882,0-7.018c0-1.001,0-2.005,0-3.007c-0.17-1.5,0.358-3.7-1.002-4.01
			c0-0.333,0-0.668,0-1.002c0.15-2.49-0.519-4.16-2.006-5.013c0-0.334,0-0.668,0-1.002c-3.084-8.947-8.832-15.229-16.04-20.05
			c-0.335,0-0.668,0-1.003,0c-1.869-2.81-5.491-3.866-9.022-5.013c-3.592-0.084-5.793-1.559-9.022-2.004
			C276.795,159.425,267.529,159.425,265.144,161.09z"/>
		<circle fill-rule="evenodd" clip-rule="evenodd" fill="#333133" cx="272.66" cy="211.161" r="51.321"/>
	</g>
</g>
<path fill-rule="evenodd" clip-rule="evenodd" fill="#FFFFFF" d="M269.009,170.035c2.092,0,4.186,0,6.278,0
	c21.416,2.994,34.046,15.509,37.476,36.691c0,2.681,0,5.364,0,8.044c-3.471,20.859-15.637,33.024-36.495,36.495
	c-2.682,0-5.364,0-8.044,0c-21.021-3.388-33.657-15.897-36.691-37.476c0-2.093,0-4.186,0-6.279
	c0.94-10.758,5.773-19.311,11.968-25.507C249.88,175.626,258.265,171.042,269.009,170.035z M269.794,174.941
	c0.455,2.495-2.868,3.316-4.12,1.765c-0.37-0.245-0.236-1.508-0.786-0.98c-0.731-0.012-1.242,0.198-1.767,0.393
	c2.164,8.042,5.805,15.51,7.26,24.134c0.164,0.973,0.049,2.431,0.982,3.138c-0.868-8.745,0.322-19.049,0.588-28.449
	C271.233,174.941,270.513,174.941,269.794,174.941z M272.345,174.941c0,0.196,0,0.392,0,0.587c0.091,6.72,1.224,14.09,1.177,20.798
	c-0.013,1.833-0.521,3.74-0.589,5.298c-0.021,0.484-0.326,1.531,0.392,1.765c1.651-10.057,5.296-18.118,7.849-27.272
	c-0.525-0.194-1.035-0.404-1.767-0.393c-0.784,0.596-1.128,1.749-2.551,1.765c-0.607,0.008-1.307-0.12-1.767-0.785
	c-0.607-0.308-0.237-1.592-0.979-1.765C273.522,174.941,272.934,174.941,272.345,174.941z M260.769,176.706
	c0.323,2.093-0.944,3.376-2.354,3.336c-1.121-0.032-1.406-1.133-2.354-1.373c-0.41,0.374-0.938,0.632-1.569,0.784
	c3.924,7.313,9.696,13.767,13.146,21.19c0.517,1.116,0.656,2.52,1.765,3.335c-0.132-2.106-1.304-4.115-1.961-6.278
	c-2.105-6.917-2.81-14.617-4.709-21.387c-0.012-0.12-0.029-0.232-0.197-0.196C262.077,176.445,261.477,176.63,260.769,176.706z
	 M281.566,176.706c-0.874,3.24-1.442,6.772-2.158,10.203c-0.724,3.474-1.282,7.027-2.159,10.203
	c-0.676,2.451-2.246,4.534-2.354,6.868c1.121-0.667,1.289-2.109,1.766-3.139c1.631-3.521,3.583-6.232,5.493-9.223
	c2.576-4.027,5.299-7.947,7.653-12.164c-0.631-0.152-1.159-0.41-1.568-0.784c-0.894,0.41-1.209,1.359-2.355,1.373
	c-1.527,0.017-2.807-1.541-2.158-3.336c-0.821-0.095-1.523-0.308-2.159-0.588C281.566,176.314,281.566,176.51,281.566,176.706z
	 M266.065,202.213c-2.017-2.889-3.668-5.982-5.297-9.221c-2.165-4.308-4.303-8.747-6.475-12.95c-0.012-0.12-0.03-0.233-0.196-0.196
	c-0.7,0.216-0.997,0.834-1.766,0.981c1.751,2.722-1.999,5.015-3.924,2.942c-0.339,0.643-1.036,0.927-1.375,1.57
	c3.546,3.136,7.049,6.28,10.595,9.418c1.724,1.526,3.68,3.063,5.299,4.709c1.688,1.719,2.761,4.034,4.709,5.494
	C267.858,203.752,266.63,203.021,266.065,202.213z M278.23,202.017c-0.59,0.854-1.547,1.787-1.569,2.943
	c1.842-1.332,2.988-3.491,4.709-5.298c1.544-1.621,3.416-3.191,5.298-4.905c1.541-1.403,3.235-2.852,5.297-4.709
	c0.672-0.605,5.343-4.141,5.299-4.905c-0.021-0.348-1.289-0.904-1.571-1.374c-1.806,2.127-5.365-0.383-3.728-2.942
	c-0.631-0.285-1.099-0.732-1.765-0.981C286.289,187.123,282.65,195.634,278.23,202.017z M261.161,201.625
	c-1.649-1.585-2.99-3.586-4.513-5.298c-3.129-3.52-6.816-7.317-9.811-10.596c-0.01-0.118-0.029-0.231-0.195-0.195
	c-0.375,0.541-0.832,0.998-1.374,1.373c2.073,1.927-0.22,5.676-2.942,3.923c-0.131,0.852-0.909,1.056-0.982,1.963
	c7.329,3.828,15.795,7.266,22.172,11.772c0.844,0.598,1.746,1.653,2.942,1.57C265.022,204.208,262.854,203.252,261.161,201.625z
	 M297.459,185.536c-2.268,2.732-4.864,5.565-7.457,8.438c-3.348,3.707-6.333,7.109-9.809,10.006
	c-0.745,0.621-1.963,1.246-2.159,2.355c7.58-5.239,16.38-9.26,24.918-13.539c-0.01-0.972-0.775-1.186-0.982-1.963
	c-2.412,1.697-5.105-1.835-2.942-3.53C298.777,186.443,298.039,186.067,297.459,185.536z M240.167,194.561
	c1.939,1.624,1.719,5.187-1.963,4.71c-0.051,0.798-0.368,1.33-0.588,1.961c6.941,1.753,14.711,2.731,21.386,4.709
	c2.224,0.658,4.3,1.742,6.476,1.962c-0.794-1.007-2.104-1.278-3.14-1.766c-3.513-1.652-6.215-3.521-9.221-5.494
	c-3.96-2.597-8.263-5.251-12.165-7.652C240.8,193.624,240.541,194.151,240.167,194.561z M303.15,192.992
	c-5.909,3.652-12.062,8.203-18.051,11.575c-1.736,0.978-3.352,1.588-4.905,2.355c-0.317,0.156-1.348,0.313-1.178,0.98
	c2.125-0.246,4.039-1.277,6.28-1.962c6.877-2.1,14.581-2.881,21.386-4.709c-0.236-0.743-0.38-1.582-0.785-2.159
	c-2.963,1.356-3.965-3.555-1.569-4.316C303.83,194.273,303.71,193.412,303.15,192.992z M258.021,208.296
	c-3.415-0.855-6.709-2.257-10.006-3.336c-3.393-1.11-7.197-2.273-10.399-3.335c-0.35,0.563-0.271,1.558-0.588,2.157
	c2.075-0.192,2.689,3.39,0.98,4.121c-0.257,0.527-1.517,0.053-1.57,0.785c0,0.588,0,1.178,0,1.767
	c8.65-0.279,17.754-1.275,25.704-0.589c1.137,0.098,2.469,0.296,2.747-0.197C262.667,208.635,260.226,208.847,258.021,208.296z
	 M306.682,201.625c-4.52,1.299-8.973,3.107-13.538,4.512c-3.349,1.031-6.768,2.114-10.204,2.747
	c-1.103,0.203-2.615-0.027-3.531,0.982c8.76-0.868,19.042,0.318,28.449,0.589c0-0.655,0-1.308,0-1.963
	c-1.598-0.308-2.692-1.198-2.55-2.747c0.124-1.339,1.241-1.452,1.962-2.355C306.934,202.942,307.084,202.007,306.682,201.625z
	 M257.628,212.023c-6.528-0.007-15.147-1.132-21.19-1.177c0,0.72,0,1.44,0,2.159c2.002,0.088,2.642,1.251,2.55,2.552
	c-0.088,1.266-1.592,1.478-1.765,2.55c-0.086,0.541,0.226,0.913,0.392,1.57c8.194-2.085,15.614-5.74,24.134-7.26
	c1.135-0.204,2.6-0.017,3.139-0.786C262.567,211.104,260.157,212.027,257.628,212.023z M301.971,211.239
	c-5.094,0.223-10.646,0.846-15.499,0.784c-1.794-0.022-3.74-0.52-5.297-0.588c-0.488-0.02-1.502-0.328-1.767,0.393
	c10.171,1.602,18.186,5.36,27.469,7.849c-0.044-0.829,0.304-1.268,0.393-1.963c-2.113-0.551-2.465-2.927-1.177-4.121
	c0.53-0.491,1.347-0.291,1.765-0.98c0-0.59,0-1.178,0-1.767C305.865,210.964,304.064,211.147,301.971,211.239z M237.616,220.264
	c0.388,0.463,0.461,1.239,0.588,1.962c1.795-0.642,3.355,0.622,3.336,2.159c-0.015,1.138-0.956,1.46-1.373,2.354
	c0.374,0.41,0.632,0.938,0.785,1.569c8.399-4.615,15.285-10.744,24.525-14.519c0.01-0.339-0.15-0.502-0.392-0.589
	C257.218,216.843,246.602,217.739,237.616,220.264z M279.212,213.397c-0.011-0.206-0.251-0.154-0.196,0.195
	c-0.207,0.011-0.155,0.252,0.196,0.197c8.868,4.017,15.947,9.823,24.135,14.519c0.231-0.617,0.661-1.037,0.784-1.766
	c-1.908-0.8-1.413-5.542,1.962-4.317c0.144-0.771,0.409-1.421,0.589-2.158C297.345,218.024,287.467,216.523,279.212,213.397z
	 M265.871,214.967c-6.958,5.862-16.599,9.04-24.527,13.93c0.387,0.464,0.681,1.021,0.982,1.57c2.714-1.637,4.98,1.997,2.942,3.924
	c0.566,0.102,1.059,1.393,1.569,1.375c0.159-0.006,1.803-1.932,2.356-2.551c4.185-4.689,7.906-9.213,11.968-13.146
	c1.865-1.805,3.815-3.15,5.297-4.905C266.208,215.153,266.187,214.911,265.871,214.967z M278.623,215.163
	c-0.29-0.227-0.494-0.227-0.783,0c3.178,2.94,6.207,5.539,9.024,8.634c3.698,4.061,6.959,8.368,10.987,11.968
	c0.42-0.43,0.611-1.091,1.177-1.375c-2.007-1.942,0.311-5.466,2.942-3.924c0.299-0.617,0.876-0.956,0.982-1.765
	C294.873,224.159,285.685,220.723,278.623,215.163z M247.034,236.158c0.541,0.374,0.999,0.833,1.375,1.373
	c1.957-1.971,5.607,0.205,3.924,2.943c0.775,0.205,0.989,0.972,1.961,0.981c4.346-8.341,7.999-17.378,13.539-24.526
	c0.011-0.338-0.151-0.503-0.392-0.589C261.66,223.969,253.79,229.505,247.034,236.158z M276.661,217.125
	c5.56,7.063,8.996,16.25,13.54,24.331c0.809-0.107,1.148-0.683,1.765-0.981c-1.542-2.633,1.983-4.951,3.923-2.943
	c0.284-0.567,0.944-0.757,1.376-1.177c-6.425-6.918-14.477-12.209-20.209-19.817c-0.044-0.153-0.165-0.229-0.394-0.197
	C276.434,216.631,276.434,216.835,276.661,217.125z M254.49,241.848c0.732,0.118,0.961,0.738,1.766,0.783
	c0.956-2.023,5.701-1.286,4.315,1.963c0.89,0.026,1.351,0.48,2.16,0.589c2.219-9.293,3.558-19.464,6.867-27.666
	c-0.27,0.008-0.43-0.092-0.588-0.196C265.347,226.675,259.211,233.553,254.49,241.848z M275.288,217.518
	c-0.041-0.236-0.217-0.12-0.392,0c2.848,7.813,4.708,18.314,6.671,27.666c0.736-0.18,1.388-0.445,2.159-0.589
	c-0.672-2.051,0.818-3.391,2.549-3.139c1.122,0.163,1.153,1.198,1.964,1.176c0.525-0.256,1.042-0.525,1.568-0.783
	C285.126,233.58,279.167,226.588,275.288,217.518z M263.122,245.379c0.83-0.044,1.268,0.301,1.964,0.392
	c0.37-1.741,2.945-2.651,4.315-1.177c0.381,0.471,0.116,1.584,0.785,1.766c0.591,0,1.179,0,1.767,0
	c-0.124-9.466-1.723-19.328-0.391-28.45c-0.197,0-0.395,0-0.59,0C269.452,228.162,265.688,236.174,263.122,245.379z M272.345,246.36
	c0.654,0,1.308,0,1.961,0c0.39-1.472,1.192-2.655,2.749-2.55c1.533,0.103,1.524,1.313,2.353,1.962
	c0.525-0.194,1.036-0.405,1.767-0.392c-2.36-9.348-6.435-16.981-7.652-27.47c-0.197,0-0.394,0-0.589,0
	C273.938,227.127,272.704,236.832,272.345,246.36z"/>
<text transform="matrix(1 0 0 1 151.814 827.4375)" fill="#FFFFFF" stroke="#FFFFFF" stroke-width="2" stroke-miterlimit="10" font-family="'KrutiDev010'" font-size="123.0778" letter-spacing="1">loZfgrs</text>
</svg>
