<?xml version="1.0" encoding="utf-8"?>
<!-- Generator: Adobe Illustrator 16.0.0, SVG Export Plug-In . SVG Version: 6.00 Build 0)  -->
<!DOCTYPE svg PUBLIC "-//W3C//DTD SVG 1.1//EN" "http://www.w3.org/Graphics/SVG/1.1/DTD/svg11.dtd">
<svg version="1.1" id="Layer_1" xmlns="http://www.w3.org/2000/svg" xmlns:xlink="http://www.w3.org/1999/xlink" x="0px" y="0px"
	 width="56.333px" height="41.75px" viewBox="0 0 56.333 41.75" enable-background="new 0 0 56.333 41.75" xml:space="preserve">
<path fill="#FFFFFF" d="M38.345,25.291c1.186-3.379,2.405-6.748,3.629-10.115c0.048-0.132,0.272-0.292,0.409-0.287
	c2.908,0.123,5.813,0.263,8.721,0.415c0.413,0.021,0.82,0.124,1.246,0.191c-0.203-2.085-0.828-2.714-2.813-2.775
	c-1.931-0.059-3.855-0.064-5.787-0.094c-0.205-0.003-0.412,0-0.776,0c0.542-0.97,1.019-1.817,1.522-2.723
	c-0.83-0.792-1.91-1.245-3.067-1.588c-0.548-0.162-0.9-0.023-1.136,0.469c-0.543,1.145-1.103,2.282-1.605,3.443
	c-0.171,0.391-0.354,0.572-0.807,0.591c-2.336,0.099-4.672,0.237-7.008,0.366c-0.147,0.008-0.293,0.05-0.567,0.1
	c0.224,0.302,0.333,0.585,0.538,0.701c0.533,0.302,1.093,0.67,1.677,0.756c1.069,0.158,2.169,0.142,3.256,0.18
	c0.58,0.02,1.162,0.004,1.788,0.004c-0.048,0.187-0.063,0.273-0.09,0.354c-1.112,3.253-2.227,6.507-3.348,9.757
	c-0.059,0.162-0.174,0.313-0.293,0.438c-2.054,2.161-4.332,4.043-6.96,5.471c-0.466,0.252-0.971,0.449-1.48,0.604
	c-0.647,0.199-0.999-0.014-1.025-0.678c-0.022-0.578,0.01-1.197,0.192-1.74c0.571-1.703,1.121-3.43,1.875-5.055
	c0.709-1.527,1.645-2.951,2.529-4.391c0.203-0.332,0.604-0.543,0.914-0.811c0.064,0.045,0.131,0.09,0.195,0.135
	c0.096,2.457-0.934,4.581-2.18,6.735c0.334,0,0.605,0.057,0.841-0.01c2.117-0.603,3.614-1.897,4.294-4.021
	c0.291-0.913,0.158-1.783-0.504-2.555c-1.063-1.245-2.391-2.126-3.816-2.888c-0.488-0.26-1.007-0.286-1.426,0.011
	c-0.691,0.488-1.404,1.001-1.939,1.644c-1.608,1.929-2.603,4.203-3.493,6.528c-0.304,0.793-0.508,1.667-0.98,2.346
	c-0.894,1.287-1.946,2.466-2.941,3.681c-0.148,0.182-0.345,0.317-0.631,0.578c0.968-4.795,2.583-9.17,4.861-13.295
	c-0.621-0.758-2.929-1.742-3.819-1.595c-0.194,0.032-0.409,0.217-0.526,0.392c-0.283,0.424-0.514,0.883-0.757,1.313
	c-0.76-0.438-1.48-0.901-2.24-1.281c-0.941-0.47-1.936-0.708-2.896-0.052c-0.466,0.318-0.963,0.667-1.277,1.119
	c-0.783,1.125-1.576,2.265-2.174,3.492c-1.232,2.523-2.059,5.207-2.587,7.967c-0.289,1.512-0.535,3.032-0.255,4.573
	c0.227,1.246,1.034,1.916,2.223,2.263c1.125,0.328,1.976-0.011,2.584-0.947c0.686-1.062,1.33-2.147,1.953-3.248
	c0.382-0.676,0.688-1.391,1.028-2.088c0.041,0.224,0.003,0.429-0.013,0.634c-0.074,0.938-0.294,1.926,0.622,2.61
	c0.511,0.385,1.042,0.76,1.611,1.045c0.733,0.365,1.487,0.373,2.131-0.244c0.425-0.405,0.858-0.811,1.244-1.252
	c0.511-0.586,0.981-1.207,1.406-1.733c0.264,0.434,0.436,0.969,0.801,1.272c2.074,1.733,4.412,2.058,6.882,0.996
	c1.825-0.778,3.212-2.162,4.53-3.604c0.104-0.117,0.207-0.236,0.311-0.355c0.031,0.453-0.008,0.844-0.095,1.225
	c-0.136,0.578,0.041,1.043,0.545,1.324c0.739,0.416,1.497,0.811,2.271,1.16c0.592,0.271,1.187,0.152,1.726-0.205
	c0.271-0.178,0.538-0.35,0.799-0.539c1.896-1.406,3.213-3.289,4.267-5.355c0.396-0.778,0.592-1.667,0.842-2.517
	c0.088-0.294,0.037-0.608-0.377-0.737c-1.611,2.567-3.498,4.844-5.972,6.6c-0.008-0.195,0.033-0.359,0.084-0.521
	C37.461,28.076,37.863,26.67,38.345,25.291z M16.013,20.509c-1.491,4.288-3.906,8.075-6.419,11.812
	c-0.123,0.184-0.286,0.338-0.43,0.508c-0.04-0.018-0.079-0.033-0.118-0.051c0.022-0.271,0.014-0.555,0.073-0.82
	c0.809-3.686,2.14-7.176,3.93-10.493c0.301-0.559,0.727-1.058,1.143-1.543c0.187-0.219,0.492-0.474,0.742-0.472
	c0.394,0.003,0.807,0.173,1.165,0.36C16.173,19.847,16.092,20.282,16.013,20.509z"/>
<path fill="#FFFFFF" d="M11.767,41.092c3.593-1.246,7.309-2.184,11.012-3.037c3.927-0.908,7.897-1.617,11.892-2.168
	c2.477-0.34,4.966-0.582,7.455-0.754c1.056-0.072,2.108-0.117,3.166-0.156c-6.592,0.246-0.604,0.088,0.896,0.205
	c2.963,0.232,5.979-0.229,8.935,0c-17.396-1.363-35.718,0.166-52.286,5.91c1.141-0.395,3.271,0.047,4.466,0.047
	C8.55,41.139,10.561,41.51,11.767,41.092L11.767,41.092z"/>
</svg>
