<?xml version="1.0" encoding="utf-8"?>
<!-- Generator: Adobe Illustrator 16.0.0, SVG Export Plug-In . SVG Version: 6.00 Build 0)  -->
<!DOCTYPE svg PUBLIC "-//W3C//DTD SVG 1.1//EN" "http://www.w3.org/Graphics/SVG/1.1/DTD/svg11.dtd">
<svg version="1.1" id="Layer_1" xmlns="http://www.w3.org/2000/svg" xmlns:xlink="http://www.w3.org/1999/xlink" x="0px" y="0px"
	 width="87.703px" height="50.25px" viewBox="0 0 87.703 50.25" enable-background="new 0 0 87.703 50.25" xml:space="preserve">
<path fill-rule="evenodd" clip-rule="evenodd" fill="#FFFFFF" d="M60.587,25.738c1.816-5.178,3.687-10.339,5.561-15.498
	c0.073-0.203,0.42-0.447,0.63-0.439c4.453,0.188,8.905,0.402,13.356,0.634c0.634,0.033,1.259,0.189,1.91,0.292
	c-0.312-3.195-1.269-4.158-4.309-4.251c-2.954-0.09-5.908-0.1-8.864-0.144c-0.314-0.004-0.633-0.001-1.192-0.001
	c0.831-1.485,1.558-2.784,2.334-4.172c-1.27-1.213-2.928-1.908-4.701-2.434c-0.838-0.248-1.379-0.036-1.737,0.719
	c-0.832,1.753-1.688,3.496-2.462,5.274c-0.262,0.599-0.538,0.876-1.232,0.906c-3.581,0.151-7.16,0.364-10.74,0.561
	c-0.225,0.012-0.448,0.077-0.87,0.153c0.343,0.462,0.512,0.897,0.825,1.074c0.819,0.462,1.673,1.026,2.568,1.158
	c1.641,0.242,3.322,0.217,4.988,0.276c0.889,0.031,1.779,0.005,2.739,0.005c-0.073,0.287-0.095,0.419-0.138,0.544
	c-1.705,4.984-3.409,9.968-5.128,14.947c-0.086,0.248-0.265,0.481-0.448,0.672c-3.145,3.314-6.637,6.195-10.665,8.381
	c-0.714,0.388-1.488,0.688-2.267,0.927c-0.992,0.305-1.531-0.021-1.57-1.037c-0.035-0.887,0.015-1.835,0.293-2.666
	c0.875-2.611,1.717-5.255,2.873-7.746c1.086-2.339,2.52-4.521,3.875-6.726c0.313-0.509,0.927-0.833,1.401-1.242
	c0.1,0.069,0.199,0.139,0.299,0.208c0.146,3.765-1.429,7.019-3.338,10.317c0.511,0,0.927,0.09,1.289-0.014
	c3.244-0.918,5.537-2.904,6.578-6.156c0.445-1.398,0.242-2.731-0.772-3.914c-1.632-1.907-3.662-3.258-5.849-4.423
	c-0.749-0.399-1.544-0.438-2.186,0.016c-1.059,0.75-2.15,1.534-2.971,2.518c-2.463,2.953-3.987,6.44-5.352,10.001
	c-0.466,1.216-0.777,2.553-1.502,3.596c-1.369,1.971-2.981,3.773-4.507,5.634c-0.227,0.276-0.529,0.49-0.966,0.887
	c1.483-7.347,3.957-14.05,7.447-20.369c-0.952-1.162-4.489-2.669-5.852-2.443c-0.298,0.049-0.627,0.333-0.806,0.6
	c-0.434,0.65-0.787,1.353-1.16,2.012c-1.165-0.672-2.267-1.381-3.432-1.962c-1.442-0.719-2.966-1.083-4.436-0.08
	c-0.715,0.488-1.475,1.023-1.958,1.715c-1.2,1.722-2.414,3.469-3.33,5.348c-1.888,3.87-3.155,7.975-3.964,12.207
	c-0.443,2.315-0.819,4.647-0.391,7.008c0.348,1.91,1.585,2.938,3.405,3.467c1.725,0.5,3.028-0.015,3.959-1.453
	c1.051-1.623,2.038-3.292,2.992-4.976c0.585-1.034,1.055-2.131,1.575-3.2c0.062,0.342,0.005,0.654-0.02,0.971
	c-0.113,1.438-0.45,2.948,0.954,4.002c0.783,0.588,1.596,1.164,2.468,1.6c1.124,0.56,2.279,0.57,3.265-0.374
	c0.651-0.623,1.314-1.241,1.906-1.918c0.783-0.896,1.502-1.849,2.154-2.659c0.404,0.664,0.668,1.484,1.227,1.953
	c3.177,2.659,6.759,3.148,10.544,1.527c2.795-1.197,4.921-3.313,6.94-5.527c0.163-0.177,0.318-0.363,0.476-0.546
	c0.048,0.694-0.013,1.293-0.146,1.874c-0.205,0.891,0.063,1.598,0.836,2.031c1.134,0.637,2.293,1.241,3.479,1.778
	c0.908,0.414,1.814,0.233,2.641-0.314c0.412-0.271,0.828-0.533,1.223-0.826c2.901-2.157,4.923-5.039,6.533-8.207
	c0.606-1.195,0.908-2.552,1.292-3.854c0.133-0.45,0.055-0.935-0.581-1.132c-2.469,3.936-5.357,7.419-9.144,10.11
	c-0.011-0.298,0.051-0.552,0.129-0.8C59.236,30.006,59.848,27.85,60.587,25.738z M26.373,18.412
	c-2.284,6.571-5.985,12.372-9.834,18.093c-0.188,0.28-0.438,0.519-0.658,0.776c-0.061-0.024-0.121-0.05-0.181-0.075
	c0.034-0.42,0.021-0.851,0.111-1.258c1.24-5.646,3.279-10.996,6.021-16.075c0.462-0.855,1.114-1.621,1.751-2.365
	c0.287-0.336,0.754-0.726,1.136-0.723c0.604,0.005,1.236,0.266,1.785,0.552C26.619,17.398,26.494,18.063,26.373,18.412z"/>
<path fill="#FFFFFF" d="M19.868,49.946c5.506-1.909,11.199-3.345,16.872-4.655c6.017-1.39,12.101-2.479,18.218-3.32
	c3.792-0.521,7.604-0.893,11.421-1.156c1.615-0.111,3.232-0.18,4.85-0.24c-10.101,0.379-0.922,0.136,1.37,0.316
	c4.54,0.355,9.163-0.355,13.686,0c-26.651-2.089-54.718,0.253-80.102,9.056c1.748-0.606,5.011,0.069,6.843,0.069
	C14.94,50.016,18.021,50.586,19.868,49.946L19.868,49.946z"/>
</svg>
