<?xml version="1.0" encoding="utf-8"?>
<!-- Generator: Adobe Illustrator 16.0.0, SVG Export Plug-In . SVG Version: 6.00 Build 0)  -->
<!DOCTYPE svg PUBLIC "-//W3C//DTD SVG 1.1//EN" "http://www.w3.org/Graphics/SVG/1.1/DTD/svg11.dtd">
<svg version="1.1" id="Layer_1" xmlns="http://www.w3.org/2000/svg" xmlns:xlink="http://www.w3.org/1999/xlink" x="0px" y="0px"
	 width="74.802px" height="19.416px" viewBox="0 -1.083 74.802 19.416" enable-background="new 0 -1.083 74.802 19.416"
	 xml:space="preserve">
<g id="Background">
</g>
<g id="Guides">
</g>
<g id="Foreground">
	<path opacity="0.7" fill="#FFFFFF" enable-background="new    " d="M57.369,2.747c-1.836,0-3.291,0.487-4.403,0.709l-0.343,2.792
		c0.555-0.266,2.309-0.754,3.763-0.798c1.449-0.044,2.308,0.267,2.006,1.509c-4.314,0-7.223,0.886-7.821,3.679
		c-0.854,4.789,4.405,4.655,6.497,2.572l-0.257,1.151h3.844l1.669-7.625C63.011,3.5,60.061,2.703,57.369,2.747z M57.624,10.551
		c-0.214,1.018-1.025,1.462-2.008,1.507c-0.855,0.044-1.625-0.71-1.066-1.597c0.426-0.754,1.623-0.93,2.35-0.93
		c0.297,0,0.64,0,0.94,0C57.754,9.885,57.709,10.197,57.624,10.551z"/>
	<polygon opacity="0.7" fill="#FFFFFF" enable-background="new    " points="65.616,-0.268 62.433,14.362 66.342,14.362 
		69.563,-0.268 	"/>
	<path opacity="0.7" fill="#FFFFFF" enable-background="new    " d="M47.665-0.222h-7.153l-3.171,14.587h4.155l1.071-4.833h2.955
		c2.913,0,5.312-1.774,5.956-4.79C52.205,1.329,49.719-0.222,47.665-0.222z M47.538,4.742c-0.259,1.108-1.372,1.996-2.443,1.996
		h-1.929l0.859-3.989h2.056C47.153,2.747,47.792,3.633,47.538,4.742z"/>
	<path fill="#FAFDFF" d="M19.906,2.747c-1.815,0-3.252,0.487-4.307,0.709L15.26,6.249c0.506-0.266,2.239-0.754,3.672-0.798
		c1.437-0.044,2.282,0.267,2.027,1.509c-4.264,0-7.134,0.886-7.726,3.679c-0.844,4.789,4.35,4.655,6.375,2.572l-0.254,1.151h3.843
		l1.646-7.625C25.521,3.5,22.565,2.703,19.906,2.747z M20.201,10.551c-0.211,1.018-1.055,1.462-2.026,1.507
		c-0.845,0.044-1.562-0.71-1.013-1.597c0.423-0.754,1.603-0.93,2.28-0.93c0.338,0,0.634,0,0.971,0
		C20.327,9.885,20.244,10.197,20.201,10.551z"/>
	<polygon fill="#FAFDFF" points="26.52,2.956 30.362,2.956 30.979,9.75 34.74,2.956 38.705,2.956 29.576,19.213 25.28,19.213 
		28.088,14.436 	"/>
	<path fill="#FAFDFF" d="M10.35-0.222H3.178L0,14.362h4.209L5.24,9.529h3.007c2.875,0,5.281-1.772,5.927-4.789
		C14.903,1.329,12.454-0.222,10.35-0.222z M10.222,4.742C9.963,5.85,8.89,6.737,7.816,6.737H5.841l0.902-3.989h2.061
		C9.835,2.747,10.522,3.633,10.222,4.742z"/>
	<path fill="#FFFFFF" d="M70.406,1.623v-1.725h-0.644v-0.231h1.551v0.231h-0.646v1.725H70.406z"/>
	<path fill="#FFFFFF" d="M71.572,1.623v-1.956h0.386l0.465,1.386c0.042,0.13,0.073,0.225,0.093,0.289
		c0.022-0.071,0.059-0.175,0.104-0.312l0.47-1.363h0.349v1.957h-0.25v-1.639l-0.573,1.638h-0.229l-0.568-1.666v1.666H71.572z"/>
</g>
</svg>
