<?xml version="1.0" encoding="utf-8"?>
<!-- Generator: Adobe Illustrator 16.0.0, SVG Export Plug-In . SVG Version: 6.00 Build 0)  -->
<!DOCTYPE svg PUBLIC "-//W3C//DTD SVG 1.1//EN" "http://www.w3.org/Graphics/SVG/1.1/DTD/svg11.dtd">
<svg version="1.1" id="Layer_1" xmlns="http://www.w3.org/2000/svg" xmlns:xlink="http://www.w3.org/1999/xlink" x="0px" y="0px"
	 width="527px" height="571px" viewBox="0 0 527 571" enable-background="new 0 0 527 571" xml:space="preserve">
<circle fill="#E55E25" cx="252.944" cy="154.583" r="5.346"/>
<circle fill="#E55E25" cx="252.944" cy="170.029" r="5.346"/>
<circle fill="#E55E25" cx="268.126" cy="154.583" r="5.346"/>
<circle fill="#E55E25" cx="268.126" cy="170.029" r="5.346"/>
<circle fill="#E55E25" cx="283.438" cy="154.583" r="5.346"/>
<circle fill="#E55E25" cx="283.438" cy="170.029" r="5.346"/>
<circle fill="#E55E25" cx="298.884" cy="154.583" r="5.346"/>
<circle fill="#E55E25" cx="298.884" cy="170.029" r="5.346"/>
<circle fill="#E55E25" cx="314.064" cy="154.583" r="5.346"/>
<circle fill="#E55E25" cx="314.064" cy="170.029" r="5.346"/>
<circle fill="#E55E25" cx="252.944" cy="185.473" r="5.346"/>
<circle fill="#E55E25" cx="252.944" cy="200.918" r="5.346"/>
<circle fill="#E55E25" cx="268.126" cy="185.473" r="5.346"/>
<circle fill="#E55E25" cx="268.126" cy="200.918" r="5.346"/>
<circle fill="#E55E25" cx="283.438" cy="185.473" r="5.346"/>
<circle fill="#E55E25" cx="283.438" cy="200.918" r="5.346"/>
<circle fill="#E55E25" cx="298.884" cy="185.473" r="5.346"/>
<circle fill="#E55E25" cx="298.884" cy="200.918" r="5.346"/>
<circle fill="#E55E25" cx="314.064" cy="185.473" r="5.346"/>
<circle fill="#E55E25" cx="314.064" cy="200.918" r="5.346"/>
<circle fill="#E55E25" cx="252.944" cy="215.557" r="5.346"/>
<circle fill="#E55E25" cx="252.944" cy="231.003" r="5.346"/>
<circle fill="#E55E25" cx="268.126" cy="215.557" r="5.346"/>
<circle fill="#8C8C8C" cx="268.126" cy="231.003" r="5.346"/>
<circle fill="#E55E25" cx="283.438" cy="215.557" r="5.346"/>
<circle fill="#8C8C8C" cx="283.438" cy="231.003" r="5.346"/>
<circle fill="#8C8C8C" cx="298.884" cy="215.557" r="5.346"/>
<circle fill="#8C8C8C" cx="298.884" cy="231.003" r="5.346"/>
<circle fill="#8C8C8C" cx="314.064" cy="215.557" r="5.346"/>
<circle fill="#8C8C8C" cx="314.064" cy="231.003" r="5.346"/>
<circle fill="#8C8C8C" cx="252.944" cy="246.446" r="5.346"/>
<circle fill="#8C8C8C" cx="252.944" cy="261.893" r="5.346"/>
<circle fill="#8C8C8C" cx="268.126" cy="246.446" r="5.346"/>
<circle fill="#8C8C8C" cx="268.126" cy="261.893" r="5.346"/>
<circle fill="#8C8C8C" cx="283.438" cy="246.446" r="5.346"/>
<circle fill="#8C8C8C" cx="283.438" cy="261.893" r="5.346"/>
<circle fill="#8C8C8C" cx="298.884" cy="246.446" r="5.346"/>
<circle fill="#8C8C8C" cx="298.884" cy="261.893" r="5.346"/>
<circle fill="#8C8C8C" cx="314.064" cy="246.446" r="5.346"/>
<circle fill="#8C8C8C" cx="314.064" cy="261.893" r="5.346"/>
<circle fill="#E55E25" cx="176.551" cy="154.583" r="5.346"/>
<circle fill="#E55E25" cx="176.551" cy="170.029" r="5.346"/>
<circle fill="#E55E25" cx="191.733" cy="154.583" r="5.346"/>
<circle fill="#E55E25" cx="191.733" cy="170.029" r="5.346"/>
<circle fill="#E55E25" cx="207.046" cy="154.583" r="5.346"/>
<circle fill="#E55E25" cx="207.046" cy="170.029" r="5.346"/>
<circle fill="#E55E25" cx="222.491" cy="154.583" r="5.346"/>
<circle fill="#E55E25" cx="222.491" cy="170.029" r="5.346"/>
<circle fill="#E55E25" cx="237.672" cy="154.583" r="5.346"/>
<circle fill="#E55E25" cx="237.672" cy="170.029" r="5.346"/>
<circle fill="#E55E25" cx="176.551" cy="185.473" r="5.346"/>
<circle fill="#8C8C8C" cx="176.551" cy="200.918" r="5.346"/>
<circle fill="#E55E25" cx="191.733" cy="185.473" r="5.346"/>
<circle fill="#8C8C8C" cx="191.733" cy="200.918" r="5.346"/>
<circle fill="#E55E25" cx="207.046" cy="185.473" r="5.346"/>
<circle fill="#8C8C8C" cx="207.046" cy="200.918" r="5.346"/>
<circle fill="#E55E25" cx="222.491" cy="185.473" r="5.346"/>
<circle fill="#8C8C8C" cx="222.491" cy="200.918" r="5.346"/>
<circle fill="#E55E25" cx="237.672" cy="185.473" r="5.346"/>
<circle fill="#8C8C8C" cx="237.672" cy="200.918" r="5.346"/>
<circle fill="#8C8C8C" cx="176.551" cy="215.557" r="5.346"/>
<circle fill="#8C8C8C" cx="176.551" cy="231.003" r="5.346"/>
<circle fill="#8C8C8C" cx="191.733" cy="215.557" r="5.346"/>
<circle fill="#8C8C8C" cx="191.733" cy="231.003" r="5.346"/>
<circle fill="#8C8C8C" cx="207.046" cy="215.557" r="5.346"/>
<circle fill="#8C8C8C" cx="207.046" cy="231.003" r="5.346"/>
<circle fill="#8C8C8C" cx="222.491" cy="215.557" r="5.346"/>
<circle fill="#8C8C8C" cx="222.491" cy="231.003" r="5.346"/>
<circle fill="#8C8C8C" cx="237.672" cy="215.557" r="5.346"/>
<circle fill="#8C8C8C" cx="237.672" cy="231.003" r="5.346"/>
<circle fill="#E55E25" cx="130.295" cy="154.583" r="5.346"/>
<circle fill="#E55E25" cx="130.295" cy="170.029" r="5.346"/>
<circle fill="#E55E25" cx="145.477" cy="154.583" r="5.346"/>
<circle fill="#E55E25" cx="145.477" cy="170.029" r="5.346"/>
<circle fill="#E55E25" cx="160.79" cy="154.583" r="5.346"/>
<circle fill="#E55E25" cx="160.79" cy="170.029" r="5.346"/>
<circle fill="#8C8C8C" cx="130.295" cy="185.473" r="5.346"/>
<circle fill="#8C8C8C" cx="130.295" cy="200.918" r="5.346"/>
<circle fill="#E55E25" cx="145.477" cy="185.473" r="5.346"/>
<circle fill="#8C8C8C" cx="145.477" cy="200.918" r="5.346"/>
<circle fill="#E55E25" cx="160.79" cy="185.473" r="5.346"/>
<circle fill="#E55E25" cx="160.79" cy="200.918" r="5.346"/>
<circle fill="#8C8C8C" cx="130.295" cy="215.557" r="5.346"/>
<circle fill="#8C8C8C" cx="130.295" cy="231.003" r="5.346"/>
<circle fill="#8C8C8C" cx="145.477" cy="215.557" r="5.346"/>
<circle fill="#8C8C8C" cx="145.477" cy="231.003" r="5.346"/>
<circle fill="#8C8C8C" cx="160.79" cy="215.557" r="5.346"/>
<circle fill="#8C8C8C" cx="160.79" cy="231.003" r="5.346"/>
<circle fill="#E55E25" cx="53.903" cy="154.583" r="5.346"/>
<circle fill="#E55E25" cx="53.903" cy="170.029" r="5.346"/>
<circle fill="#E55E25" cx="69.084" cy="154.583" r="5.346"/>
<circle fill="#E55E25" cx="69.084" cy="170.029" r="5.346"/>
<circle fill="#E55E25" cx="84.397" cy="154.583" r="5.346"/>
<circle fill="#E55E25" cx="84.397" cy="170.029" r="5.346"/>
<circle fill="#E55E25" cx="99.842" cy="154.583" r="5.346"/>
<circle fill="#E55E25" cx="99.842" cy="170.029" r="5.346"/>
<circle fill="#E55E25" cx="115.022" cy="154.583" r="5.346"/>
<circle fill="#E55E25" cx="115.022" cy="170.029" r="5.346"/>
<circle fill="#8C8C8C" cx="53.903" cy="185.473" r="5.346"/>
<circle fill="#8C8C8C" cx="53.903" cy="200.918" r="5.346"/>
<circle fill="#E55E25" cx="39.531" cy="154.583" r="5.346"/>
<circle fill="#8C8C8C" cx="39.531" cy="170.029" r="5.346"/>
<circle fill="#8C8C8C" cx="22.01" cy="170.029" r="5.346"/>
<circle fill="#8C8C8C" cx="39.531" cy="185.473" r="5.346"/>
<circle fill="#8C8C8C" cx="39.531" cy="200.918" r="5.346"/>
<circle fill="#E55E25" cx="69.084" cy="185.473" r="5.346"/>
<circle fill="#8C8C8C" cx="69.084" cy="200.918" r="5.346"/>
<circle fill="#E55E25" cx="84.397" cy="185.473" r="5.346"/>
<circle fill="#E55E25" cx="84.397" cy="200.918" r="5.346"/>
<circle fill="#E55E25" cx="99.842" cy="185.473" r="5.346"/>
<circle fill="#E55E25" cx="99.842" cy="200.918" r="5.346"/>
<circle fill="#E55E25" cx="115.022" cy="185.473" r="5.346"/>
<circle fill="#8C8C8C" cx="115.022" cy="200.918" r="5.346"/>
<circle fill="#8C8C8C" cx="53.903" cy="215.557" r="5.346"/>
<circle fill="#8C8C8C" cx="53.903" cy="231.003" r="5.346"/>
<circle fill="#8C8C8C" cx="69.084" cy="215.557" r="5.346"/>
<circle fill="#8C8C8C" cx="69.084" cy="231.003" r="5.346"/>
<circle fill="#8C8C8C" cx="84.397" cy="215.557" r="5.346"/>
<circle fill="#8C8C8C" cx="84.397" cy="231.003" r="5.346"/>
<circle fill="#8C8C8C" cx="99.842" cy="215.557" r="5.346"/>
<circle fill="#8C8C8C" cx="99.842" cy="231.003" r="5.346"/>
<circle fill="#8C8C8C" cx="115.022" cy="215.557" r="5.346"/>
<circle fill="#8C8C8C" cx="115.022" cy="231.003" r="5.346"/>
<circle fill="#8C8C8C" cx="130.295" cy="246.422" r="5.346"/>
<circle fill="#8C8C8C" cx="69.084" cy="246.422" r="5.346"/>
<circle fill="#8C8C8C" cx="84.397" cy="246.422" r="5.346"/>
<circle fill="#8C8C8C" cx="99.842" cy="246.422" r="5.346"/>
<circle fill="#8C8C8C" cx="115.022" cy="246.422" r="5.346"/>
<circle fill="#8C8C8C" cx="176.551" cy="246.446" r="5.346"/>
<circle fill="#8C8C8C" cx="191.733" cy="246.446" r="5.346"/>
<circle fill="#8C8C8C" cx="207.046" cy="246.446" r="5.346"/>
<circle fill="#8C8C8C" cx="207.046" cy="261.893" r="5.346"/>
<circle fill="#8C8C8C" cx="222.491" cy="246.446" r="5.346"/>
<circle fill="#8C8C8C" cx="222.491" cy="261.893" r="5.346"/>
<circle fill="#8C8C8C" cx="237.672" cy="246.446" r="5.346"/>
<circle fill="#8C8C8C" cx="237.672" cy="261.893" r="5.346"/>
<circle fill="#8C8C8C" cx="252.944" cy="277.233" r="5.346"/>
<circle fill="#8C8C8C" cx="252.944" cy="292.678" r="5.346"/>
<circle fill="#8C8C8C" cx="268.126" cy="277.233" r="5.346"/>
<circle fill="#8C8C8C" cx="268.126" cy="292.678" r="5.346"/>
<circle fill="#8C8C8C" cx="283.438" cy="277.233" r="5.346"/>
<circle fill="#8C8C8C" cx="283.438" cy="292.678" r="5.346"/>
<circle fill="#8C8C8C" cx="298.884" cy="277.233" r="5.346"/>
<circle fill="#8C8C8C" cx="298.884" cy="292.678" r="5.346"/>
<circle fill="#8C8C8C" cx="314.064" cy="277.233" r="5.346"/>
<circle fill="#8C8C8C" cx="314.064" cy="292.678" r="5.346"/>
<circle fill="#8C8C8C" cx="252.944" cy="308.122" r="5.346"/>
<circle fill="#8C8C8C" cx="252.944" cy="323.567" r="5.347"/>
<circle fill="#8C8C8C" cx="268.126" cy="308.122" r="5.346"/>
<circle fill="#8C8C8C" cx="268.126" cy="323.567" r="5.347"/>
<circle fill="#8C8C8C" cx="283.438" cy="308.122" r="5.346"/>
<circle fill="#8C8C8C" cx="283.438" cy="323.567" r="5.347"/>
<circle fill="#8C8C8C" cx="298.884" cy="308.122" r="5.346"/>
<circle fill="#8C8C8C" cx="298.884" cy="323.567" r="5.347"/>
<circle fill="#8C8C8C" cx="207.114" cy="292.678" r="5.346"/>
<circle fill="#8C8C8C" cx="222.428" cy="277.233" r="5.346"/>
<circle fill="#8C8C8C" cx="222.428" cy="292.678" r="5.346"/>
<circle fill="#8C8C8C" cx="237.872" cy="277.233" r="5.346"/>
<circle fill="#8C8C8C" cx="237.872" cy="292.678" r="5.346"/>
<circle fill="#8C8C8C" cx="207.114" cy="308.122" r="5.346"/>
<circle fill="#8C8C8C" cx="222.428" cy="308.122" r="5.346"/>
<circle fill="#8C8C8C" cx="222.428" cy="323.567" r="5.347"/>
<circle fill="#8C8C8C" cx="237.872" cy="308.122" r="5.346"/>
<circle fill="#8C8C8C" cx="237.872" cy="323.567" r="5.347"/>
<circle fill="#8C8C8C" cx="314.064" cy="308.122" r="5.346"/>
<circle fill="#8C8C8C" cx="314.064" cy="323.567" r="5.347"/>
<circle fill="#E55E25" cx="329.337" cy="154.583" r="5.346"/>
<circle fill="#E55E25" cx="329.337" cy="170.029" r="5.346"/>
<circle fill="#E55E25" cx="344.518" cy="154.583" r="5.346"/>
<circle fill="#E55E25" cx="344.518" cy="170.029" r="5.346"/>
<circle fill="#E55E25" cx="359.831" cy="154.583" r="5.347"/>
<circle fill="#E55E25" cx="359.831" cy="170.029" r="5.347"/>
<circle fill="#E55E25" cx="375.276" cy="154.583" r="5.346"/>
<circle fill="#E55E25" cx="375.276" cy="170.029" r="5.346"/>
<circle fill="#E55E25" cx="390.457" cy="154.583" r="5.346"/>
<circle fill="#E55E25" cx="390.457" cy="170.029" r="5.346"/>
<circle fill="#E55E25" cx="329.337" cy="185.473" r="5.346"/>
<circle fill="#E55E25" cx="329.337" cy="200.918" r="5.346"/>
<circle fill="#E55E25" cx="344.518" cy="185.473" r="5.346"/>
<circle fill="#E55E25" cx="344.518" cy="200.918" r="5.346"/>
<circle fill="#E55E25" cx="359.831" cy="185.473" r="5.347"/>
<circle fill="#E55E25" cx="359.831" cy="200.918" r="5.347"/>
<circle fill="#E55E25" cx="375.276" cy="185.473" r="5.346"/>
<circle fill="#E55E25" cx="375.276" cy="200.918" r="5.346"/>
<circle fill="#E55E25" cx="390.457" cy="185.473" r="5.346"/>
<circle fill="#8C8C8C" cx="390.457" cy="200.918" r="5.346"/>
<circle fill="#8C8C8C" cx="329.337" cy="215.557" r="5.346"/>
<circle fill="#8C8C8C" cx="329.337" cy="231.003" r="5.346"/>
<circle fill="#8C8C8C" cx="344.518" cy="215.557" r="5.346"/>
<circle fill="#8C8C8C" cx="344.518" cy="231.003" r="5.346"/>
<circle fill="#8C8C8C" cx="359.831" cy="215.557" r="5.347"/>
<circle fill="#8C8C8C" cx="359.831" cy="231.003" r="5.347"/>
<circle fill="#8C8C8C" cx="375.276" cy="215.557" r="5.346"/>
<circle fill="#8C8C8C" cx="375.276" cy="231.003" r="5.346"/>
<circle fill="#8C8C8C" cx="390.457" cy="215.557" r="5.346"/>
<circle fill="#8C8C8C" cx="390.457" cy="231.003" r="5.346"/>
<circle fill="#8C8C8C" cx="329.337" cy="246.446" r="5.346"/>
<circle fill="#8C8C8C" cx="329.337" cy="261.893" r="5.346"/>
<circle fill="#8C8C8C" cx="344.518" cy="246.446" r="5.346"/>
<circle fill="#8C8C8C" cx="344.518" cy="261.893" r="5.346"/>
<circle fill="#8C8C8C" cx="359.831" cy="246.447" r="5.347"/>
<circle fill="#8C8C8C" cx="359.831" cy="261.893" r="5.346"/>
<circle fill="#8C8C8C" cx="375.276" cy="246.446" r="5.346"/>
<circle fill="#8C8C8C" cx="375.276" cy="261.893" r="5.346"/>
<circle fill="#8C8C8C" cx="390.457" cy="246.446" r="5.346"/>
<circle fill="#8C8C8C" cx="390.457" cy="261.893" r="5.346"/>
<circle fill="#8C8C8C" cx="329.337" cy="277.233" r="5.346"/>
<circle fill="#8C8C8C" cx="329.337" cy="292.678" r="5.346"/>
<circle fill="#8C8C8C" cx="344.518" cy="277.233" r="5.346"/>
<circle fill="#8C8C8C" cx="344.518" cy="292.678" r="5.346"/>
<circle fill="#8C8C8C" cx="359.831" cy="277.233" r="5.346"/>
<circle fill="#8C8C8C" cx="359.831" cy="292.678" r="5.347"/>
<circle fill="#8C8C8C" cx="375.276" cy="277.233" r="5.346"/>
<circle fill="#8C8C8C" cx="375.276" cy="292.678" r="5.346"/>
<circle fill="#8C8C8C" cx="390.457" cy="277.233" r="5.346"/>
<circle fill="#8C8C8C" cx="390.457" cy="292.678" r="5.346"/>
<circle fill="#8C8C8C" cx="329.337" cy="308.122" r="5.346"/>
<circle fill="#8C8C8C" cx="329.337" cy="323.567" r="5.347"/>
<circle fill="#8C8C8C" cx="344.518" cy="308.122" r="5.346"/>
<circle fill="#8C8C8C" cx="344.518" cy="323.567" r="5.347"/>
<circle fill="#8C8C8C" cx="359.831" cy="308.123" r="5.347"/>
<circle fill="#8C8C8C" cx="359.831" cy="323.567" r="5.347"/>
<circle fill="#8C8C8C" cx="375.276" cy="308.122" r="5.346"/>
<circle fill="#8C8C8C" cx="375.276" cy="323.567" r="5.347"/>
<circle fill="#8C8C8C" cx="390.457" cy="308.122" r="5.346"/>
<circle fill="#8C8C8C" cx="390.457" cy="323.567" r="5.347"/>
<circle fill="#8C8C8C" cx="329.337" cy="338.907" r="5.347"/>
<circle fill="#8C8C8C" cx="329.337" cy="354.353" r="5.346"/>
<circle fill="#8C8C8C" cx="344.518" cy="338.907" r="5.347"/>
<circle fill="#8C8C8C" cx="344.518" cy="354.353" r="5.346"/>
<circle fill="#8C8C8C" cx="359.831" cy="338.907" r="5.347"/>
<circle fill="#8C8C8C" cx="359.831" cy="354.352" r="5.347"/>
<circle fill="#8C8C8C" cx="375.276" cy="338.907" r="5.347"/>
<circle fill="#8C8C8C" cx="375.276" cy="354.353" r="5.346"/>
<circle fill="#8C8C8C" cx="390.457" cy="338.907" r="5.347"/>
<circle fill="#8C8C8C" cx="390.457" cy="354.353" r="5.346"/>
<circle fill="#8C8C8C" cx="329.337" cy="369.797" r="5.346"/>
<circle fill="#8C8C8C" cx="329.337" cy="385.242" r="5.347"/>
<circle fill="#8C8C8C" cx="344.518" cy="369.797" r="5.346"/>
<circle fill="#8C8C8C" cx="344.518" cy="385.242" r="5.347"/>
<circle fill="#8C8C8C" cx="359.831" cy="369.798" r="5.347"/>
<circle fill="#8C8C8C" cx="359.831" cy="385.242" r="5.347"/>
<circle fill="#8C8C8C" cx="375.276" cy="369.797" r="5.346"/>
<circle fill="#8C8C8C" cx="375.276" cy="385.242" r="5.347"/>
<circle fill="#8C8C8C" cx="390.457" cy="369.797" r="5.346"/>
<circle fill="#8C8C8C" cx="390.457" cy="385.242" r="5.347"/>
<circle fill="#8C8C8C" cx="329.337" cy="399.881" r="5.347"/>
<circle fill="#8C8C8C" cx="329.337" cy="415.326" r="5.346"/>
<circle fill="#8C8C8C" cx="344.518" cy="399.881" r="5.347"/>
<circle fill="#8C8C8C" cx="344.518" cy="415.326" r="5.346"/>
<circle fill="#8C8C8C" cx="359.831" cy="399.881" r="5.347"/>
<circle fill="#8C8C8C" cx="359.831" cy="415.326" r="5.348"/>
<circle fill="#8C8C8C" cx="375.276" cy="399.881" r="5.347"/>
<circle fill="#8C8C8C" cx="375.276" cy="415.326" r="5.346"/>
<circle fill="#8C8C8C" cx="390.457" cy="399.881" r="5.347"/>
<circle fill="#8C8C8C" cx="390.457" cy="415.326" r="5.346"/>
<circle fill="#8C8C8C" cx="329.337" cy="430.771" r="5.347"/>
<circle fill="#8C8C8C" cx="329.337" cy="446.216" r="5.347"/>
<circle fill="#8C8C8C" cx="344.518" cy="430.771" r="5.347"/>
<circle fill="#8C8C8C" cx="344.518" cy="446.216" r="5.347"/>
<circle fill="#8C8C8C" cx="359.831" cy="430.771" r="5.347"/>
<circle fill="#8C8C8C" cx="359.831" cy="446.216" r="5.347"/>
<circle fill="#8C8C8C" cx="375.276" cy="430.771" r="5.347"/>
<circle fill="#8C8C8C" cx="375.276" cy="446.216" r="5.347"/>
<circle fill="#8C8C8C" cx="390.457" cy="430.771" r="5.347"/>
<circle fill="#E55E25" cx="405.876" cy="154.583" r="5.346"/>
<circle fill="#E55E25" cx="405.876" cy="170.029" r="5.346"/>
<circle fill="#E55E25" cx="252.944" cy="124.447" r="5.346"/>
<circle fill="#E55E25" cx="252.944" cy="139.892" r="5.346"/>
<circle fill="#E55E25" cx="268.126" cy="124.447" r="5.346"/>
<circle fill="#E55E25" cx="268.126" cy="139.892" r="5.346"/>
<circle fill="#E55E25" cx="283.438" cy="124.447" r="5.346"/>
<circle fill="#E55E25" cx="283.438" cy="139.892" r="5.346"/>
<circle fill="#E55E25" cx="298.884" cy="124.447" r="5.346"/>
<circle fill="#E55E25" cx="298.884" cy="139.892" r="5.346"/>
<circle fill="#E55E25" cx="314.064" cy="124.447" r="5.346"/>
<circle fill="#E55E25" cx="314.064" cy="139.892" r="5.346"/>
<circle fill="#E55E25" cx="176.551" cy="124.447" r="5.346"/>
<circle fill="#E55E25" cx="176.551" cy="139.892" r="5.346"/>
<circle fill="#E55E25" cx="191.733" cy="124.447" r="5.346"/>
<circle fill="#E55E25" cx="191.733" cy="139.892" r="5.346"/>
<circle fill="#E55E25" cx="207.046" cy="124.447" r="5.346"/>
<circle fill="#E55E25" cx="207.046" cy="139.892" r="5.346"/>
<circle fill="#E55E25" cx="222.491" cy="124.447" r="5.346"/>
<circle fill="#E55E25" cx="222.491" cy="139.892" r="5.346"/>
<circle fill="#E55E25" cx="237.672" cy="124.447" r="5.346"/>
<circle fill="#E55E25" cx="237.672" cy="139.892" r="5.346"/>
<circle fill="#E55E25" cx="130.295" cy="124.447" r="5.346"/>
<circle fill="#E55E25" cx="130.295" cy="139.892" r="5.346"/>
<circle fill="#E55E25" cx="145.477" cy="124.447" r="5.346"/>
<circle fill="#E55E25" cx="145.477" cy="139.892" r="5.346"/>
<circle fill="#E55E25" cx="160.79" cy="124.447" r="5.346"/>
<circle fill="#E55E25" cx="160.79" cy="139.892" r="5.346"/>
<circle fill="#E55E25" cx="53.903" cy="124.447" r="5.346"/>
<circle fill="#E55E25" cx="53.903" cy="139.892" r="5.346"/>
<circle fill="#E55E25" cx="69.084" cy="124.447" r="5.346"/>
<circle fill="#E55E25" cx="69.084" cy="139.892" r="5.346"/>
<circle fill="#E55E25" cx="84.397" cy="124.447" r="5.346"/>
<circle fill="#E55E25" cx="84.397" cy="139.892" r="5.346"/>
<circle fill="#E55E25" cx="99.842" cy="124.447" r="5.346"/>
<circle fill="#E55E25" cx="99.842" cy="139.892" r="5.346"/>
<circle fill="#E55E25" cx="115.022" cy="124.447" r="5.346"/>
<circle fill="#E55E25" cx="115.022" cy="139.892" r="5.346"/>
<circle fill="#E55E25" cx="39.531" cy="124.447" r="5.346"/>
<circle fill="#E55E25" cx="39.531" cy="139.892" r="5.346"/>
<circle fill="#E55E25" cx="329.337" cy="124.447" r="5.346"/>
<circle fill="#E55E25" cx="329.337" cy="139.892" r="5.346"/>
<circle fill="#E55E25" cx="344.518" cy="124.447" r="5.346"/>
<circle fill="#E55E25" cx="344.518" cy="139.892" r="5.346"/>
<circle fill="#E55E25" cx="359.831" cy="124.447" r="5.347"/>
<circle fill="#E55E25" cx="359.831" cy="139.892" r="5.347"/>
<circle fill="#E55E25" cx="375.276" cy="124.447" r="5.346"/>
<circle fill="#E55E25" cx="375.276" cy="139.892" r="5.346"/>
<circle fill="#E55E25" cx="390.457" cy="124.447" r="5.346"/>
<circle fill="#E55E25" cx="390.457" cy="139.892" r="5.346"/>
<circle fill="#E55E25" cx="252.944" cy="92.908" r="5.346"/>
<circle fill="#E55E25" cx="252.944" cy="108.354" r="5.346"/>
<circle fill="#E55E25" cx="268.126" cy="92.908" r="5.346"/>
<circle fill="#E55E25" cx="268.126" cy="108.354" r="5.346"/>
<circle fill="#E55E25" cx="283.438" cy="92.908" r="5.346"/>
<circle fill="#E55E25" cx="283.438" cy="108.354" r="5.346"/>
<circle fill="#E55E25" cx="298.884" cy="92.908" r="5.346"/>
<circle fill="#E55E25" cx="298.884" cy="108.354" r="5.346"/>
<circle fill="#E55E25" cx="314.064" cy="92.908" r="5.346"/>
<circle fill="#E55E25" cx="314.064" cy="108.354" r="5.346"/>
<circle fill="#E55E25" cx="176.551" cy="92.908" r="5.346"/>
<circle fill="#E55E25" cx="176.551" cy="108.354" r="5.346"/>
<circle fill="#E55E25" cx="191.733" cy="92.908" r="5.346"/>
<circle fill="#E55E25" cx="191.733" cy="108.354" r="5.346"/>
<circle fill="#E55E25" cx="207.046" cy="92.908" r="5.346"/>
<circle fill="#E55E25" cx="207.046" cy="108.354" r="5.346"/>
<circle fill="#E55E25" cx="222.491" cy="92.908" r="5.346"/>
<circle fill="#E55E25" cx="222.491" cy="108.354" r="5.346"/>
<circle fill="#E55E25" cx="237.672" cy="92.908" r="5.346"/>
<circle fill="#E55E25" cx="237.672" cy="108.354" r="5.346"/>
<circle fill="#E55E25" cx="130.295" cy="92.908" r="5.346"/>
<circle fill="#E55E25" cx="130.295" cy="108.354" r="5.346"/>
<circle fill="#E55E25" cx="145.477" cy="92.908" r="5.346"/>
<circle fill="#E55E25" cx="145.477" cy="108.354" r="5.346"/>
<circle fill="#E55E25" cx="160.79" cy="92.908" r="5.346"/>
<circle fill="#E55E25" cx="160.79" cy="108.354" r="5.346"/>
<circle fill="#E55E25" cx="53.903" cy="92.908" r="5.346"/>
<circle fill="#E55E25" cx="53.903" cy="108.354" r="5.346"/>
<circle fill="#E55E25" cx="69.084" cy="92.908" r="5.346"/>
<circle fill="#E55E25" cx="69.084" cy="108.354" r="5.346"/>
<circle fill="#E55E25" cx="84.397" cy="92.908" r="5.346"/>
<circle fill="#E55E25" cx="84.397" cy="108.354" r="5.346"/>
<circle fill="#E55E25" cx="99.842" cy="92.908" r="5.346"/>
<circle fill="#E55E25" cx="99.842" cy="108.354" r="5.346"/>
<circle fill="#E55E25" cx="115.022" cy="92.908" r="5.346"/>
<circle fill="#E55E25" cx="115.022" cy="108.354" r="5.346"/>
<circle fill="#E55E25" cx="39.531" cy="108.354" r="5.346"/>
<circle fill="#E55E25" cx="329.337" cy="92.908" r="5.346"/>
<circle fill="#E55E25" cx="329.337" cy="108.354" r="5.346"/>
<circle fill="#E55E25" cx="344.518" cy="92.908" r="5.346"/>
<circle fill="#E55E25" cx="344.518" cy="108.354" r="5.346"/>
<circle fill="#E55E25" cx="359.831" cy="92.909" r="5.347"/>
<circle fill="#E55E25" cx="359.831" cy="108.354" r="5.347"/>
<circle fill="#E55E25" cx="375.276" cy="92.908" r="5.346"/>
<circle fill="#E55E25" cx="252.944" cy="78.366" r="5.346"/>
<circle fill="#E55E25" cx="268.126" cy="78.366" r="5.346"/>
<circle fill="#E55E25" cx="283.438" cy="78.366" r="5.346"/>
<circle fill="#E55E25" cx="298.884" cy="78.366" r="5.346"/>
<circle fill="#E55E25" cx="314.064" cy="78.366" r="5.346"/>
<circle fill="#E55E25" cx="176.551" cy="78.366" r="5.346"/>
<circle fill="#E55E25" cx="191.733" cy="78.366" r="5.346"/>
<circle fill="#E55E25" cx="207.046" cy="78.366" r="5.346"/>
<circle fill="#E55E25" cx="222.491" cy="78.366" r="5.346"/>
<circle fill="#E55E25" cx="237.672" cy="78.366" r="5.346"/>
<circle fill="#E55E25" cx="130.295" cy="78.366" r="5.346"/>
<circle fill="#E55E25" cx="145.477" cy="78.366" r="5.346"/>
<circle fill="#E55E25" cx="160.79" cy="78.366" r="5.346"/>
<circle fill="#E55E25" cx="53.903" cy="78.366" r="5.346"/>
<circle fill="#E55E25" cx="69.084" cy="78.366" r="5.346"/>
<circle fill="#E55E25" cx="84.397" cy="78.366" r="5.346"/>
<circle fill="#E55E25" cx="99.842" cy="78.366" r="5.346"/>
<circle fill="#E55E25" cx="115.022" cy="78.366" r="5.346"/>
<circle fill="#E55E25" cx="329.337" cy="78.366" r="5.346"/>
<circle fill="#E55E25" cx="344.518" cy="78.366" r="5.346"/>
<circle fill="#E55E25" cx="359.831" cy="78.366" r="5.347"/>
<circle fill="#E55E25" cx="252.944" cy="62.948" r="5.346"/>
<circle fill="#E55E25" cx="268.126" cy="62.948" r="5.346"/>
<circle fill="#E55E25" cx="283.438" cy="62.948" r="5.346"/>
<circle fill="#E55E25" cx="298.884" cy="62.948" r="5.346"/>
<circle fill="#E55E25" cx="314.064" cy="62.948" r="5.346"/>
<circle fill="#E55E25" cx="176.551" cy="62.948" r="5.346"/>
<circle fill="#E55E25" cx="191.733" cy="62.948" r="5.346"/>
<circle fill="#E55E25" cx="207.046" cy="62.948" r="5.346"/>
<circle fill="#E55E25" cx="222.491" cy="62.948" r="5.346"/>
<circle fill="#E55E25" cx="237.672" cy="62.948" r="5.346"/>
<circle fill="#E55E25" cx="130.295" cy="62.948" r="5.346"/>
<circle fill="#E55E25" cx="145.477" cy="62.948" r="5.346"/>
<circle fill="#E55E25" cx="160.79" cy="62.948" r="5.346"/>
<circle fill="#E55E25" cx="84.397" cy="62.948" r="5.346"/>
<circle fill="#E55E25" cx="99.842" cy="62.948" r="5.346"/>
<circle fill="#E55E25" cx="115.022" cy="62.948" r="5.346"/>
<circle fill="#E55E25" cx="176.551" cy="48.23" r="5.346"/>
<circle fill="#E55E25" cx="191.733" cy="48.23" r="5.346"/>
<circle fill="#E55E25" cx="207.046" cy="48.23" r="5.346"/>
<circle fill="#E55E25" cx="222.491" cy="48.23" r="5.346"/>
<circle fill="#E55E25" cx="237.672" cy="48.23" r="5.346"/>
<circle fill="#E55E25" cx="130.295" cy="48.23" r="5.346"/>
<circle fill="#E55E25" cx="145.477" cy="48.23" r="5.346"/>
<circle fill="#E55E25" cx="160.79" cy="48.23" r="5.346"/>
<circle fill="#E55E25" cx="84.397" cy="48.23" r="5.346"/>
<circle fill="#E55E25" cx="99.842" cy="48.23" r="5.346"/>
<circle fill="#E55E25" cx="115.022" cy="48.23" r="5.346"/>
<circle fill="#E55E25" cx="176.551" cy="32.111" r="5.346"/>
<circle fill="#E55E25" cx="191.733" cy="32.111" r="5.346"/>
<circle fill="#E55E25" cx="207.046" cy="32.111" r="5.346"/>
<circle fill="#E55E25" cx="130.295" cy="32.111" r="5.346"/>
<circle fill="#E55E25" cx="145.477" cy="32.111" r="5.346"/>
<circle fill="#E55E25" cx="160.79" cy="32.111" r="5.346"/>
<circle fill="#E55E25" cx="176.551" cy="17.393" r="5.346"/>
<circle fill="#E55E25" cx="191.733" cy="17.393" r="5.346"/>
<circle fill="#E55E25" cx="207.046" cy="17.393" r="5.346"/>
<circle fill="#E55E25" cx="145.477" cy="17.393" r="5.346"/>
<circle fill="#E55E25" cx="160.79" cy="17.393" r="5.346"/>
<circle fill="#E55E25" cx="99.842" cy="32.111" r="5.346"/>
<circle fill="#E55E25" cx="115.022" cy="32.111" r="5.346"/>
<circle fill="#E55E25" cx="329.337" cy="62.948" r="5.346"/>
<circle fill="#E55E25" cx="344.518" cy="62.948" r="5.346"/>
<circle fill="#E55E25" cx="375.276" cy="108.354" r="5.346"/>
<circle fill="#E55E25" cx="283.438" cy="47.089" r="5.346"/>
<circle fill="#E55E25" cx="298.884" cy="47.089" r="5.346"/>
<circle fill="#8C8C8C" cx="405.876" cy="185.473" r="5.346"/>
<circle fill="#8C8C8C" cx="405.876" cy="200.918" r="5.346"/>
<circle fill="#8C8C8C" cx="405.876" cy="215.557" r="5.346"/>
<circle fill="#8C8C8C" cx="405.876" cy="231.003" r="5.346"/>
<circle fill="#8C8C8C" cx="405.876" cy="246.446" r="5.346"/>
<circle fill="#8C8C8C" cx="405.876" cy="261.893" r="5.346"/>
<circle fill="#8C8C8C" cx="405.876" cy="277.233" r="5.346"/>
<circle fill="#8C8C8C" cx="405.876" cy="292.678" r="5.346"/>
<circle fill="#8C8C8C" cx="405.876" cy="308.122" r="5.346"/>
<circle fill="#8C8C8C" cx="405.876" cy="323.567" r="5.347"/>
<circle fill="#8C8C8C" cx="405.876" cy="338.907" r="5.347"/>
<circle fill="#8C8C8C" cx="405.876" cy="354.353" r="5.346"/>
<circle fill="#8C8C8C" cx="405.876" cy="369.797" r="5.346"/>
<circle fill="#8C8C8C" cx="405.876" cy="385.242" r="5.347"/>
<circle fill="#8C8C8C" cx="405.876" cy="399.881" r="5.347"/>
<circle fill="#8C8C8C" cx="405.876" cy="415.326" r="5.346"/>
<circle fill="#8C8C8C" cx="420.593" cy="185.473" r="5.346"/>
<circle fill="#8C8C8C" cx="420.593" cy="200.918" r="5.346"/>
<circle fill="#8C8C8C" cx="420.593" cy="215.557" r="5.346"/>
<circle fill="#8C8C8C" cx="420.593" cy="231.003" r="5.346"/>
<circle fill="#8C8C8C" cx="420.593" cy="246.446" r="5.346"/>
<circle fill="#8C8C8C" cx="420.593" cy="261.893" r="5.346"/>
<circle fill="#8C8C8C" cx="420.593" cy="277.233" r="5.346"/>
<circle fill="#8C8C8C" cx="420.593" cy="292.678" r="5.346"/>
<circle fill="#8C8C8C" cx="420.593" cy="308.122" r="5.346"/>
<circle fill="#8C8C8C" cx="436.013" cy="185.473" r="5.346"/>
<circle fill="#8C8C8C" cx="436.013" cy="200.918" r="5.346"/>
<circle fill="#8C8C8C" cx="436.013" cy="215.557" r="5.346"/>
<circle fill="#8C8C8C" cx="436.013" cy="231.003" r="5.346"/>
<circle fill="#8C8C8C" cx="436.013" cy="246.446" r="5.346"/>
<circle fill="#8C8C8C" cx="436.013" cy="261.893" r="5.346"/>
<circle fill="#8C8C8C" cx="436.013" cy="277.233" r="5.346"/>
<circle fill="#8C8C8C" cx="436.013" cy="292.678" r="5.346"/>
<circle fill="#8C8C8C" cx="450.729" cy="185.473" r="5.346"/>
<circle fill="#8C8C8C" cx="450.729" cy="215.557" r="5.346"/>
<circle fill="#8C8C8C" cx="450.729" cy="231.003" r="5.346"/>
<circle fill="#8C8C8C" cx="450.729" cy="246.446" r="5.346"/>
<circle fill="#8C8C8C" cx="450.729" cy="261.893" r="5.346"/>
<circle fill="#8C8C8C" cx="450.729" cy="277.233" r="5.346"/>
<circle fill="#8C8C8C" cx="466.85" cy="185.473" r="5.346"/>
<circle fill="#8C8C8C" cx="466.85" cy="215.557" r="5.346"/>
<circle fill="#8C8C8C" cx="466.85" cy="231.003" r="5.346"/>
<circle fill="#8C8C8C" cx="466.85" cy="246.446" r="5.346"/>
<circle fill="#8C8C8C" cx="466.85" cy="261.893" r="5.346"/>
<circle fill="#8C8C8C" cx="482.269" cy="215.557" r="5.346"/>
<circle fill="#8C8C8C" cx="482.269" cy="231.003" r="5.346"/>
<circle fill="#8C8C8C" cx="482.269" cy="246.446" r="5.346"/>
<circle fill="#8C8C8C" cx="497.888" cy="215.557" r="5.346"/>
<circle fill="#8C8C8C" cx="420.593" cy="369.797" r="5.346"/>
<circle fill="#8C8C8C" cx="420.593" cy="385.242" r="5.347"/>
<circle fill="#8C8C8C" cx="420.593" cy="399.881" r="5.347"/>
<circle fill="#8C8C8C" cx="420.593" cy="415.326" r="5.346"/>
<circle fill="#8C8C8C" cx="329.337" cy="461.556" r="5.347"/>
<circle fill="#8C8C8C" cx="329.337" cy="477.001" r="5.346"/>
<circle fill="#8C8C8C" cx="344.518" cy="461.556" r="5.347"/>
<circle fill="#8C8C8C" cx="344.518" cy="477.001" r="5.346"/>
<circle fill="#8C8C8C" cx="359.831" cy="461.556" r="5.347"/>
<circle fill="#8C8C8C" cx="359.831" cy="477.001" r="5.346"/>
<circle fill="#8C8C8C" cx="375.276" cy="461.556" r="5.347"/>
<circle fill="#8C8C8C" cx="375.276" cy="477.001" r="5.346"/>
<circle fill="#8C8C8C" cx="466.9" cy="415.326" r="5.346"/>
<circle fill="#8C8C8C" cx="451.719" cy="430.771" r="5.347"/>
<circle fill="#8C8C8C" cx="451.719" cy="446.216" r="5.347"/>
<circle fill="#8C8C8C" cx="466.9" cy="430.771" r="5.347"/>
<circle fill="#8C8C8C" cx="466.9" cy="444.901" r="5.347"/>
<circle fill="#8C8C8C" cx="466.9" cy="461.123" r="5.346"/>
<circle fill="#8C8C8C" cx="466.9" cy="476.116" r="5.346"/>
<circle fill="#8C8C8C" cx="482.318" cy="399.881" r="5.347"/>
<circle fill="#8C8C8C" cx="482.318" cy="415.326" r="5.346"/>
<circle fill="#8C8C8C" cx="482.318" cy="430.502" r="5.346"/>
<circle fill="#8C8C8C" cx="451.719" cy="461.556" r="5.347"/>
<circle fill="#8C8C8C" cx="451.719" cy="477.001" r="5.346"/>
<circle fill="#8C8C8C" cx="329.337" cy="492.446" r="5.346"/>
<path fill="#8C8C8C" d="M329.337,502.544c2.953,0,5.347,2.396,5.347,5.346c0,2.954-2.394,5.349-5.347,5.349
	c-2.952,0-5.346-2.395-5.346-5.349C323.991,504.939,326.385,502.544,329.337,502.544z"/>
<circle fill="#8C8C8C" cx="344.518" cy="492.446" r="5.346"/>
<path fill="#8C8C8C" d="M344.518,502.544c2.952,0,5.347,2.396,5.347,5.346c0,2.954-2.395,5.349-5.347,5.349
	s-5.347-2.395-5.347-5.349C339.171,504.939,341.565,502.544,344.518,502.544z"/>
<circle fill="#8C8C8C" cx="359.831" cy="492.446" r="5.346"/>
<circle fill="#8C8C8C" cx="359.831" cy="507.891" r="5.347"/>
<circle fill="#8C8C8C" cx="283.081" cy="338.907" r="5.347"/>
<circle fill="#8C8C8C" cx="283.081" cy="354.353" r="5.346"/>
<circle fill="#8C8C8C" cx="298.263" cy="338.907" r="5.347"/>
<circle fill="#8C8C8C" cx="298.263" cy="354.353" r="5.346"/>
<circle fill="#8C8C8C" cx="313.575" cy="338.907" r="5.347"/>
<circle fill="#8C8C8C" cx="237.515" cy="338.907" r="5.347"/>
<circle fill="#8C8C8C" cx="252.695" cy="338.907" r="5.347"/>
<circle fill="#8C8C8C" cx="268.009" cy="338.907" r="5.347"/>
<circle fill="#8C8C8C" cx="313.575" cy="354.352" r="5.347"/>
<circle fill="#8C8C8C" cx="283.081" cy="369.797" r="5.346"/>
<circle fill="#8C8C8C" cx="283.081" cy="385.242" r="5.347"/>
<circle fill="#8C8C8C" cx="298.263" cy="369.797" r="5.346"/>
<circle fill="#8C8C8C" cx="298.263" cy="385.242" r="5.347"/>
<circle fill="#8C8C8C" cx="313.575" cy="369.798" r="5.347"/>
<circle fill="#8C8C8C" cx="313.575" cy="385.242" r="5.347"/>
<circle fill="#8C8C8C" cx="283.081" cy="399.881" r="5.347"/>
<circle fill="#8C8C8C" cx="283.081" cy="415.326" r="5.346"/>
<circle fill="#8C8C8C" cx="298.263" cy="399.881" r="5.347"/>
<circle fill="#8C8C8C" cx="298.263" cy="415.326" r="5.346"/>
<circle fill="#8C8C8C" cx="313.575" cy="399.881" r="5.347"/>
<circle fill="#8C8C8C" cx="313.575" cy="415.326" r="5.348"/>
<circle fill="#8C8C8C" cx="283.081" cy="430.771" r="5.347"/>
<circle fill="#8C8C8C" cx="283.081" cy="446.216" r="5.347"/>
<circle fill="#8C8C8C" cx="298.263" cy="430.771" r="5.347"/>
<circle fill="#8C8C8C" cx="298.263" cy="446.216" r="5.347"/>
<circle fill="#8C8C8C" cx="313.575" cy="430.771" r="5.347"/>
<circle fill="#8C8C8C" cx="313.575" cy="446.216" r="5.347"/>
<circle fill="#8C8C8C" cx="283.081" cy="461.556" r="5.347"/>
<circle fill="#8C8C8C" cx="283.081" cy="477.001" r="5.346"/>
<circle fill="#8C8C8C" cx="298.263" cy="461.556" r="5.347"/>
<circle fill="#8C8C8C" cx="298.263" cy="477.001" r="5.346"/>
<circle fill="#8C8C8C" cx="313.575" cy="461.556" r="5.347"/>
<circle fill="#8C8C8C" cx="313.575" cy="477.001" r="5.346"/>
<circle fill="#8C8C8C" cx="283.081" cy="492.446" r="5.346"/>
<path fill="#8C8C8C" d="M283.081,502.544c2.953,0,5.346,2.396,5.346,5.346c0,2.954-2.393,5.349-5.346,5.349
	s-5.346-2.395-5.346-5.349C277.735,504.939,280.128,502.544,283.081,502.544z"/>
<circle fill="#8C8C8C" cx="298.263" cy="492.446" r="5.346"/>
<path fill="#8C8C8C" d="M298.263,502.544c2.952,0,5.346,2.396,5.346,5.346c0,2.954-2.394,5.349-5.346,5.349
	c-2.953,0-5.347-2.395-5.347-5.349C292.916,504.939,295.31,502.544,298.263,502.544z"/>
<circle fill="#8C8C8C" cx="313.575" cy="492.446" r="5.346"/>
<circle fill="#8C8C8C" cx="313.575" cy="507.891" r="5.347"/>
<circle fill="#8C8C8C" cx="237.525" cy="354.353" r="5.346"/>
<circle fill="#8C8C8C" cx="252.707" cy="354.353" r="5.346"/>
<circle fill="#8C8C8C" cx="268.021" cy="354.352" r="5.347"/>
<circle fill="#8C8C8C" cx="237.525" cy="369.797" r="5.346"/>
<circle fill="#8C8C8C" cx="237.525" cy="385.242" r="5.347"/>
<circle fill="#8C8C8C" cx="252.707" cy="369.797" r="5.346"/>
<circle fill="#8C8C8C" cx="252.707" cy="385.242" r="5.347"/>
<circle fill="#8C8C8C" cx="268.021" cy="369.798" r="5.347"/>
<circle fill="#8C8C8C" cx="268.021" cy="385.242" r="5.347"/>
<circle fill="#8C8C8C" cx="237.525" cy="399.881" r="5.347"/>
<circle fill="#8C8C8C" cx="237.525" cy="415.326" r="5.346"/>
<circle fill="#8C8C8C" cx="223.155" cy="415.326" r="5.346"/>
<circle fill="#8C8C8C" cx="252.707" cy="399.881" r="5.347"/>
<circle fill="#8C8C8C" cx="252.707" cy="415.326" r="5.346"/>
<circle fill="#8C8C8C" cx="268.021" cy="399.881" r="5.347"/>
<circle fill="#8C8C8C" cx="268.021" cy="415.326" r="5.348"/>
<circle fill="#8C8C8C" cx="237.525" cy="430.771" r="5.347"/>
<circle fill="#8C8C8C" cx="237.525" cy="446.216" r="5.347"/>
<circle fill="#8C8C8C" cx="252.707" cy="430.771" r="5.347"/>
<circle fill="#8C8C8C" cx="252.707" cy="446.216" r="5.347"/>
<circle fill="#8C8C8C" cx="268.021" cy="430.771" r="5.347"/>
<circle fill="#8C8C8C" cx="268.021" cy="446.216" r="5.347"/>
<circle fill="#8C8C8C" cx="252.707" cy="461.556" r="5.347"/>
<circle fill="#8C8C8C" cx="252.707" cy="477.001" r="5.346"/>
<circle fill="#8C8C8C" cx="268.021" cy="461.556" r="5.347"/>
<circle fill="#8C8C8C" cx="268.021" cy="477.001" r="5.346"/>
<circle fill="#8C8C8C" cx="252.707" cy="492.446" r="5.346"/>
<path fill="#8C8C8C" d="M252.707,502.544c2.952,0,5.346,2.396,5.346,5.346c0,2.954-2.394,5.349-5.346,5.349
	c-2.953,0-5.347-2.395-5.347-5.349C247.36,504.939,249.754,502.544,252.707,502.544z"/>
<circle fill="#8C8C8C" cx="268.021" cy="492.446" r="5.346"/>
<circle fill="#8C8C8C" cx="268.021" cy="507.891" r="5.347"/>
<circle fill="#8C8C8C" cx="329.337" cy="522.259" r="5.347"/>
<circle fill="#8C8C8C" cx="329.337" cy="537.704" r="5.346"/>
<circle fill="#8C8C8C" cx="344.518" cy="522.259" r="5.347"/>
<circle fill="#8C8C8C" cx="283.081" cy="522.259" r="5.347"/>
<circle fill="#8C8C8C" cx="283.081" cy="537.704" r="5.346"/>
<circle fill="#8C8C8C" cx="298.263" cy="522.259" r="5.347"/>
<circle fill="#8C8C8C" cx="298.263" cy="537.704" r="5.346"/>
<circle fill="#8C8C8C" cx="313.575" cy="522.258" r="5.347"/>
<circle fill="#8C8C8C" cx="313.575" cy="537.704" r="5.346"/>
<circle fill="#8C8C8C" cx="283.081" cy="553.147" r="5.347"/>
<circle fill="#8C8C8C" cx="298.263" cy="553.147" r="5.347"/>
<circle fill="#8C8C8C" cx="313.575" cy="553.147" r="5.347"/>
<circle fill="#8C8C8C" cx="268.021" cy="522.258" r="5.347"/>
<circle fill="#8C8C8C" cx="268.021" cy="537.704" r="5.346"/>
<circle fill="#8C8C8C" cx="268.021" cy="553.147" r="5.347"/>
</svg>
